<?xml version="1.0" encoding="UTF-8" standalone="no"?>
<!-- Created with Inkscape (http://www.inkscape.org/) -->

<svg
   xmlns:dc="http://purl.org/dc/elements/1.1/"
   xmlns:cc="http://creativecommons.org/ns#"
   xmlns:rdf="http://www.w3.org/1999/02/22-rdf-syntax-ns#"
   xmlns:svg="http://www.w3.org/2000/svg"
   xmlns="http://www.w3.org/2000/svg"
   xmlns:sodipodi="http://sodipodi.sourceforge.net/DTD/sodipodi-0.dtd"
   xmlns:inkscape="http://www.inkscape.org/namespaces/inkscape"
   width="210mm"
   height="297mm"
   viewBox="0 0 210 297"
   version="1.1"
   id="svg8"
   inkscape:version="0.92.3 (2405546, 2018-03-11)"
   sodipodi:docname="logo.svg">
  <defs
     id="defs2" />
  <sodipodi:namedview
     id="base"
     pagecolor="#ffffff"
     bordercolor="#666666"
     borderopacity="1.0"
     inkscape:pageopacity="0.0"
     inkscape:pageshadow="2"
     inkscape:zoom="2.32"
     inkscape:cx="248.04881"
     inkscape:cy="869.18431"
     inkscape:document-units="mm"
     inkscape:current-layer="layer1"
     showgrid="false"
     inkscape:window-width="1440"
     inkscape:window-height="837"
     inkscape:window-x="-8"
     inkscape:window-y="-8"
     inkscape:window-maximized="1" />
  <metadata
     id="metadata5">
    <rdf:RDF>
      <cc:Work
         rdf:about="">
        <dc:format>image/svg+xml</dc:format>
        <dc:type
           rdf:resource="http://purl.org/dc/dcmitype/StillImage" />
        <dc:title></dc:title>
      </cc:Work>
    </rdf:RDF>
  </metadata>
  <g
     inkscape:label="Calque 1"
     inkscape:groupmode="layer"
     id="layer1">
    <g
       id="surface1-2"
       transform="matrix(0.23757278,0,0,0.23757278,62.817365,49.435014)"
       inkscape:export-xdpi="96"
       inkscape:export-ydpi="96">
      <path
         id="path75"
         d="M 13.167969,38.5 C 6.707031,38.5 1.453125,33.246094 1.453125,26.785156 c 0,-4.019531 2.03125,-7.710937 5.4375,-9.878906 L 7.304688,16.644531 25.667969,6.320313 21.476563,13.65625 37.308594,2.742188 26.761719,20.074219 33.65625,17.121094 C 30.921875,21.238281 23.066406,33.0625 22.734375,33.527344 l -0.121094,0.164062 C 20.40625,36.703125 16.875,38.5 13.167969,38.5 Z"
         style="fill:#98ccfd"
         inkscape:connector-curvature="0" />
      <path
         id="path77"
         d="m 35.660156,4.484375 -8.515625,13.996094 -1.625,2.667969 2.875,-1.230469 3.917969,-1.679688 c -4.089844,6.15625 -9.710937,14.617188 -9.96875,14.980469 l -0.136719,0.179688 C 20.097656,36.28125 16.714844,38 13.164063,38 6.984375,38 1.953125,32.96875 1.953125,26.785156 c 0,-3.847656 1.945313,-7.382812 5.207031,-9.457031 l 0.277344,-0.1875 0.398438,-0.222656 16.503906,-9.273438 -2.207031,3.859375 -2.179688,3.8125 3.613281,-2.492187 12.09375,-8.339844 M 38.953125,1 23,12 27,5 7.34375,16.046875 6.605469,16.464844 6.621094,16.484375 C 3.21875,18.652344 0.953125,22.449219 0.953125,26.785156 0.953125,33.53125 6.421875,39 13.167969,39 c 4.046875,0 7.625,-1.976562 9.847656,-5.007812 l 0.128906,-0.175782 C 23.550781,33.242188 35,16 35,16 l -7,3 z"
         style="fill:#4788c7"
         inkscape:connector-curvature="0" />
      <path
         id="path79"
         d="m 18.835938,31.007813 0.01953,-0.02734 5.628906,-6.578125 -3.351562,0.519531 -2.164063,0.335938 1.164063,-1.855469 5.230468,-8.335938 -7.839843,4.785157 -2.335938,1.425781 0.863281,-2.59375 1.035157,-3.105469 -7.5625,5.351563 -0.035157,0.02344 -0.035156,0.01953 C 9.097655,21.1836 8.773437,21.414069 8.484374,21.656256 l -0.058594,0.05078 -0.0625,0.03906 c -0.167968,0.105469 -0.214843,0.160156 -0.21875,0.164062 l -0.070312,0.136719 -0.082031,0.07031 C 6.707031,23.433594 6,25.167969 6,27 c 0,3.859375 3.140625,7 7,7 1.949219,0 3.761719,-0.789062 5.105469,-2.222656 l 0.109375,-0.117188 0.136719,-0.07422 0.214843,-0.238282 c 0.08984,-0.109375 0.167969,-0.210937 0.246094,-0.3125 z"
         style="fill:#ffffff"
         inkscape:connector-curvature="0" />
      <path
         id="path81"
         d="m 15.5,27.5 c 0,1.65625 -1.34375,3 -3,3 -1.65625,0 -3,-1.34375 -3,-3 0,-1.65625 1.34375,-3 3,-3 1.65625,0 3,1.34375 3,3 z"
         style="fill:#dff0fe"
         inkscape:connector-curvature="0" />
      <path
         id="path83"
         d="M 12.5,25 C 13.882813,25 15,26.117188 15,27.5 15,28.882813 13.882813,30 12.5,30 11.117188,30 10,28.882813 10,27.5 10,26.117188 11.117188,25 12.5,25 m 0,-1 C 10.570313,24 9,25.570313 9,27.5 9,29.429688 10.570313,31 12.5,31 14.429688,31 16,29.429688 16,27.5 16,25.570313 14.429688,24 12.5,24 Z"
         style="fill:#4788c7"
         inkscape:connector-curvature="0" />
    </g>
    <path
       id="path110"
       overflow="visible"
       font-weight="400"
       d="m 50.871402,61.258824 a 0.10330159,0.10330159 0 0 0 -0.05972,0.02158 L 48.435983,63.1342 a 0.10334972,0.10334972 0 0 0 0.127097,0.163006 l 0.143034,-0.111562 v 2.715632 a 0.10330159,0.10330159 0 0 0 0.103291,0.103291 h 1.428728 a 0.10330159,0.10330159 0 0 0 0.03369,0 h 1.205804 a 0.10330159,0.10330159 0 0 0 0.03369,0 h 1.429737 a 0.10330159,0.10330159 0 0 0 0.103291,-0.103291 v -2.715632 l 0.143034,0.111562 A 0.10334977,0.10334977 0 1 0 53.314476,63.1342 l -0.786587,-0.613694 c -8e-6,-0.02149 6e-6,-0.04637 0,-0.07868 -1.5e-5,-0.07556 6e-6,-0.175396 0,-0.274972 -1.3e-5,-0.199154 0,-0.397228 0,-0.397228 A 0.10330159,0.10330159 0 0 0 52.424603,61.66634 h -0.413165 a 0.10330159,0.10330159 0 0 0 -0.103291,0.103291 c 0,0 6.5e-5,0.119515 0,0.239063 -6e-6,0.01027 7e-6,0.01805 0,0.02824 l -0.969364,-0.756529 a 0.10330159,0.10330159 0 0 0 -0.06738,-0.02159 z m 0.0038,0.23422 1.072051,0.836418 a 0.10330159,0.10330159 0 0 0 0.10208,0.01453 c 0,0 0.06395,-0.0825 0.06395,-0.08251 2e-6,-1.5e-5 5.08e-4,-0.0055 5.86e-4,-0.0067 1.55e-4,-0.0023 1.71e-4,-0.0029 2.02e-4,-0.0036 4.6e-5,-0.0014 1.81e-4,-0.0021 2.01e-4,-0.0028 2.5e-5,-0.0015 -1.5e-5,-0.0029 0,-0.0048 3.1e-5,-0.0038 -2.5e-5,-0.0091 0,-0.01574 5e-5,-0.01325 1.61e-4,-0.032 2.02e-4,-0.05447 5.4e-5,-0.04494 1.69e-4,-0.104608 2.02e-4,-0.164419 3.6e-5,-0.06798 -7e-6,-0.08996 0,-0.135973 h 0.206582 c 10e-7,0.06634 -9e-6,0.146562 0,0.293936 7e-6,0.09958 -1.5e-5,0.199399 0,0.274973 7e-6,0.03779 -1e-5,0.06942 0,0.09199 1e-5,0.02257 9.6e-5,0.02919 2.02e-4,0.03833 a 0.10330159,0.10330159 0 0 0 0.03974,0.08029 l 0.476512,0.371808 v 2.773731 h -1.239468 v -1.96255 h -1.446077 v 1.962534 H 48.912672 V 63.02449 Z m -0.516457,2.548995 h 1.032913 v 1.755951 h -1.032913 z m 0.723039,0.723039 a 0.10329126,0.10329126 0 0 0 -0.103291,0.103291 0.10329126,0.10329126 0 0 0 0.103291,0.103291 0.10329126,0.10329126 0 0 0 0.103291,-0.103291 0.10329126,0.10329126 0 0 0 -0.103291,-0.103291 z"
       style="font-weight:400;line-height:normal;font-family:sans-serif;text-indent:0;text-align:start;text-decoration:none;text-decoration-line:none;text-decoration-style:solid;text-decoration-color:#000000;text-transform:none;white-space:normal;overflow:visible;isolation:auto;mix-blend-mode:normal;stroke-width:0.10329125"
       inkscape:connector-curvature="0"
       inkscape:export-xdpi="96"
       inkscape:export-ydpi="96" />
    <path
       id="path110-7"
       overflow="visible"
       font-weight="400"
       d="m 43.969107,61.258824 a 0.10330159,0.10330159 0 0 0 -0.05972,0.02158 L 41.533688,63.1342 a 0.10334972,0.10334972 0 0 0 0.127097,0.163006 l 0.143034,-0.111562 v 2.715632 a 0.10330159,0.10330159 0 0 0 0.103291,0.103291 h 1.428728 a 0.10330159,0.10330159 0 0 0 0.03369,0 h 1.205804 a 0.10330159,0.10330159 0 0 0 0.03369,0 h 1.429737 a 0.10330159,0.10330159 0 0 0 0.103291,-0.103291 v -2.715632 l 0.143034,0.111562 A 0.10334977,0.10334977 0 1 0 46.412181,63.1342 l -0.786587,-0.613694 c -8e-6,-0.02149 6e-6,-0.04637 0,-0.07868 -1.5e-5,-0.07556 6e-6,-0.175396 0,-0.274972 -1.3e-5,-0.199154 0,-0.397228 0,-0.397228 A 0.10330159,0.10330159 0 0 0 45.522308,61.66634 h -0.413165 a 0.10330159,0.10330159 0 0 0 -0.103291,0.103291 c 0,0 6.5e-5,0.119515 0,0.239063 -6e-6,0.01027 7e-6,0.01805 0,0.02824 l -0.969364,-0.756529 a 0.10330159,0.10330159 0 0 0 -0.06738,-0.02159 z m 0.0038,0.23422 1.072051,0.836418 a 0.10330159,0.10330159 0 0 0 0.10208,0.01453 c 0,0 0.06395,-0.0825 0.06395,-0.08251 2e-6,-1.5e-5 5.02e-4,-0.0055 5.82e-4,-0.0067 1.55e-4,-0.0023 1.71e-4,-0.0029 2.02e-4,-0.0036 4.6e-5,-0.0014 1.81e-4,-0.0021 2.01e-4,-0.0028 2.5e-5,-0.0015 -1.5e-5,-0.0029 0,-0.0048 3.1e-5,-0.0038 -2.5e-5,-0.0091 0,-0.01574 5e-5,-0.01325 1.61e-4,-0.032 2.02e-4,-0.05447 5.4e-5,-0.04494 1.69e-4,-0.104608 2.02e-4,-0.164419 3.6e-5,-0.06798 -7e-6,-0.08996 0,-0.135973 h 0.206582 c 10e-7,0.06634 -9e-6,0.146562 0,0.293936 7e-6,0.09958 -1.5e-5,0.199399 0,0.274973 7e-6,0.03779 -1e-5,0.06942 0,0.09199 10e-6,0.02257 9.6e-5,0.02919 2.02e-4,0.03833 a 0.10330159,0.10330159 0 0 0 0.03974,0.08029 l 0.476512,0.371808 v 2.773731 h -1.239464 v -1.96255 h -1.446077 v 1.962534 H 42.010377 V 63.02449 Z m -0.516457,2.548995 h 1.032913 V 65.79799 H 43.45645 Z m 0.723039,0.723039 a 0.10329126,0.10329126 0 0 0 -0.103291,0.103291 0.10329126,0.10329126 0 0 0 0.103291,0.103291 0.10329126,0.10329126 0 0 0 0.103291,-0.103291 0.10329126,0.10329126 0 0 0 -0.103291,-0.103291 z"
       style="font-weight:400;line-height:normal;font-family:sans-serif;text-indent:0;text-align:start;text-decoration:none;text-decoration-line:none;text-decoration-style:solid;text-decoration-color:#000000;text-transform:none;white-space:normal;overflow:visible;isolation:auto;mix-blend-mode:normal;stroke-width:0.10329125"
       inkscape:connector-curvature="0"
       inkscape:export-xdpi="96"
       inkscape:export-ydpi="96" />
    <path
       id="path110-3"
       overflow="visible"
       font-weight="400"
       d="m 68.130499,61.258824 a 0.10330159,0.10330159 0 0 0 -0.05972,0.02158 L 65.69508,63.1342 a 0.10334972,0.10334972 0 0 0 0.127097,0.163006 l 0.143034,-0.111562 v 2.715632 a 0.10330159,0.10330159 0 0 0 0.103291,0.103291 h 1.428728 a 0.10330159,0.10330159 0 0 0 0.03369,0 h 1.205804 a 0.10330159,0.10330159 0 0 0 0.03369,0 h 1.429737 a 0.10330159,0.10330159 0 0 0 0.103291,-0.103291 v -2.715632 l 0.143034,0.111562 A 0.10334977,0.10334977 0 1 0 70.573573,63.1342 l -0.786587,-0.613694 c -8e-6,-0.02149 6e-6,-0.04637 0,-0.07868 -1.5e-5,-0.07556 6e-6,-0.175396 0,-0.274972 -1.3e-5,-0.199154 0,-0.397228 0,-0.397228 A 0.10330159,0.10330159 0 0 0 69.6837,61.66634 h -0.413165 a 0.10330159,0.10330159 0 0 0 -0.103291,0.103291 c 0,0 6.5e-5,0.119515 0,0.239063 -6e-6,0.01027 7e-6,0.01805 0,0.02824 L 68.19788,61.280405 a 0.10330159,0.10330159 0 0 0 -0.06738,-0.02159 z m 0.0038,0.23422 1.072051,0.836418 a 0.10330159,0.10330159 0 0 0 0.10208,0.01453 c 0,0 0.06395,-0.0825 0.06395,-0.08251 2e-6,-1.5e-5 5.03e-4,-0.0055 5.82e-4,-0.0067 1.55e-4,-0.0023 1.71e-4,-0.0029 2.02e-4,-0.0036 4.6e-5,-0.0014 1.81e-4,-0.0021 2.01e-4,-0.0028 2.5e-5,-0.0015 -1.5e-5,-0.0029 0,-0.0048 3.1e-5,-0.0038 -2.5e-5,-0.0091 0,-0.01574 5e-5,-0.01325 1.61e-4,-0.032 2.02e-4,-0.05447 5.4e-5,-0.04494 1.69e-4,-0.104608 2.02e-4,-0.164419 3.6e-5,-0.06798 -7e-6,-0.08996 0,-0.135973 h 0.206582 c 1e-6,0.06634 -9e-6,0.146562 0,0.293936 7e-6,0.09958 -1.5e-5,0.199399 0,0.274973 7e-6,0.03779 -10e-6,0.06942 0,0.09199 1e-5,0.02257 9.6e-5,0.02919 2.02e-4,0.03833 a 0.10330159,0.10330159 0 0 0 0.03974,0.08029 l 0.476512,0.371808 v 2.773731 h -1.239464 v -1.962549 h -1.446077 v 1.962534 h -1.239495 v -2.773532 z m -0.516457,2.548995 h 1.032913 v 1.755951 h -1.032913 z m 0.723039,0.723039 a 0.10329126,0.10329126 0 0 0 -0.103291,0.103291 0.10329126,0.10329126 0 0 0 0.103291,0.103291 0.10329126,0.10329126 0 0 0 0.103291,-0.103291 0.10329126,0.10329126 0 0 0 -0.103291,-0.103291 z"
       style="font-weight:400;line-height:normal;font-family:sans-serif;text-indent:0;text-align:start;text-decoration:none;text-decoration-line:none;text-decoration-style:solid;text-decoration-color:#000000;text-transform:none;white-space:normal;overflow:visible;isolation:auto;mix-blend-mode:normal;stroke-width:0.10329125"
       inkscape:connector-curvature="0"
       inkscape:export-xdpi="96"
       inkscape:export-ydpi="96" />
    <path
       id="path110-5"
       overflow="visible"
       font-weight="400"
       d="m 75.032795,61.258824 a 0.10330159,0.10330159 0 0 0 -0.05972,0.02158 L 72.597376,63.1342 a 0.10334972,0.10334972 0 0 0 0.127097,0.163006 l 0.143034,-0.111562 v 2.715632 a 0.10330159,0.10330159 0 0 0 0.103291,0.103291 h 1.428728 a 0.10330159,0.10330159 0 0 0 0.03369,0 h 1.205804 a 0.10330159,0.10330159 0 0 0 0.03369,0 h 1.429737 a 0.10330159,0.10330159 0 0 0 0.103292,-0.103291 v -2.715632 l 0.143033,0.111562 A 0.10334977,0.10334977 0 1 0 77.475869,63.1342 l -0.786587,-0.613694 c -7e-6,-0.02149 6e-6,-0.04637 0,-0.07868 -1.5e-5,-0.07556 6e-6,-0.175396 0,-0.274972 -1.3e-5,-0.199154 0,-0.397228 0,-0.397228 A 0.10330159,0.10330159 0 0 0 76.585997,61.66634 h -0.413166 a 0.10330159,0.10330159 0 0 0 -0.103291,0.103291 c 0,0 6.5e-5,0.119515 0,0.239063 -6e-6,0.01027 7e-6,0.01805 0,0.02824 l -0.969364,-0.756529 a 0.10330159,0.10330159 0 0 0 -0.06738,-0.02159 z m 0.0038,0.23422 1.072051,0.836418 a 0.10330159,0.10330159 0 0 0 0.10208,0.01453 c 0,0 0.06395,-0.0825 0.06395,-0.08251 3e-6,-1.5e-5 5.03e-4,-0.0055 5.82e-4,-0.0067 1.56e-4,-0.0023 1.71e-4,-0.0029 2.02e-4,-0.0036 4.6e-5,-0.0014 1.81e-4,-0.0021 2.01e-4,-0.0028 2.5e-5,-0.0015 -1.5e-5,-0.0029 0,-0.0048 3.1e-5,-0.0038 -2.5e-5,-0.0091 0,-0.01574 5e-5,-0.01325 1.61e-4,-0.032 2.02e-4,-0.05447 5.4e-5,-0.04494 1.69e-4,-0.104608 2.02e-4,-0.164419 3.6e-5,-0.06798 -7e-6,-0.08996 0,-0.135973 h 0.206582 c 10e-7,0.06634 -9e-6,0.146562 0,0.293936 8e-6,0.09958 -1.4e-5,0.199399 0,0.274973 8e-6,0.03779 -1e-5,0.06942 0,0.09199 1e-5,0.02257 9.6e-5,0.02919 2.03e-4,0.03833 a 0.10330159,0.10330159 0 0 0 0.03974,0.08029 l 0.476512,0.371808 v 2.773731 h -1.239465 v -1.96255 H 74.31356 v 1.962534 H 73.074065 V 63.02449 Z m -0.516457,2.548995 h 1.032913 v 1.755951 h -1.032913 z m 0.723039,0.723039 a 0.10329126,0.10329126 0 0 0 -0.103291,0.103291 0.10329126,0.10329126 0 0 0 0.103291,0.103291 0.10329126,0.10329126 0 0 0 0.103291,-0.103291 0.10329126,0.10329126 0 0 0 -0.103291,-0.103291 z"
       style="font-weight:400;line-height:normal;font-family:sans-serif;text-indent:0;text-align:start;text-decoration:none;text-decoration-line:none;text-decoration-style:solid;text-decoration-color:#000000;text-transform:none;white-space:normal;overflow:visible;isolation:auto;mix-blend-mode:normal;stroke-width:0.10329125"
       inkscape:connector-curvature="0"
       inkscape:export-xdpi="96"
       inkscape:export-ydpi="96" />
    <path
       id="path158"
       d="m 59.511663,57.959084 a 0.18290149,0.18290149 0 0 0 -0.08429,0.01715 l -4.023431,1.88384 a 0.18290149,0.18290149 0 0 0 -0.105371,0.165738 v 0.493643 a 0.18290149,0.18290149 0 0 0 0.182883,0.182882 h 0.54865 v 4.206313 h -0.219318 c -0.292612,0 -0.512215,0.258808 -0.512215,0.548651 v 0.548649 h 8.412627 v -0.548649 c 0,-0.289843 -0.219603,-0.548651 -0.512215,-0.548651 h -0.219318 v -4.206313 h 0.548651 a 0.18290149,0.18290149 0 0 0 0.182882,-0.182882 v -0.493643 a 0.18290149,0.18290149 0 0 0 -0.105371,-0.165738 l -4.023429,-1.88384 a 0.18290149,0.18290149 0 0 0 -0.07073,-0.01715 z m -0.0068,0.384699 3.840546,1.798113 v 0.19467 h -1.645947 a 0.18290149,0.18290149 0 1 0 0,0.365767 h 0.182883 v 4.206313 h -4.754964 v -4.206313 h 0.182884 a 0.18290149,0.18290149 0 1 0 0,-0.365767 h -0.365767 -0.731533 -0.548649 v -0.19467 z m -0.182884,1.26125 v 0.559724 c -0.390534,0.04696 -0.638371,0.241105 -0.764751,0.439347 -0.145131,0.227658 -0.149665,0.459352 -0.149665,0.459352 a 0.18290149,0.18290149 0 0 0 0,0.0047 c 0,0.325126 0.156419,0.570415 0.363624,0.71546 0.207204,0.145043 0.452565,0.213957 0.681168,0.282539 0.228605,0.06859 0.440453,0.136829 0.576154,0.231818 0.135701,0.09499 0.207887,0.192608 0.207887,0.416132 0,0.150284 -0.0412,0.24152 -0.101084,0.313973 -0.05988,0.07246 -0.145587,0.125827 -0.239677,0.162521 -0.18818,0.07339 -0.387198,0.07216 -0.387198,0.07216 a 0.18290149,0.18290149 0 0 0 -0.0036,0 c -0.406586,0 -0.552639,-0.171116 -0.642592,-0.354693 -0.08995,-0.183578 -0.08894,-0.373268 -0.08894,-0.373268 l -0.365766,-0.0072 c 0,0 -0.008,0.267518 0.126088,0.541149 0.117685,0.240173 0.372163,0.489082 0.788327,0.546507 v 0.561865 h 0.365785 v -0.561871 c 0.09528,-0.01206 0.215455,-0.03508 0.340763,-0.08393 0.134514,-0.05246 0.27741,-0.135036 0.388983,-0.270039 0.11157,-0.135005 0.184671,-0.322594 0.184671,-0.547221 0,-0.325126 -0.156419,-0.570416 -0.363624,-0.715459 -0.207206,-0.145044 -0.452565,-0.213959 -0.681169,-0.282541 -0.228604,-0.06859 -0.440453,-0.136828 -0.576154,-0.231819 -0.134937,-0.09446 -0.206366,-0.192413 -0.207172,-0.413273 6.3e-5,-0.0018 0.0043,-0.133209 0.09179,-0.270396 0.08804,-0.138109 0.24072,-0.281111 0.63902,-0.281111 0.385859,0 0.535399,0.171181 0.630447,0.357551 0.09505,0.186369 0.101084,0.377554 0.101084,0.377554 l 0.365767,-0.0072 c 0,0 -0.003,-0.266023 -0.141092,-0.536862 -0.120747,-0.236758 -0.371355,-0.484891 -0.773324,-0.54365 v -0.561865 z m -2.926131,1.0973 h 0.365767 v 4.206313 h -0.365767 z m 5.852263,0 h 0.365767 v 4.206313 h -0.365767 z m -6.437346,4.572079 h 7.388196 c 0.07315,0 0.146448,0.07038 0.146448,0.182884 v 0.182884 h -7.681106 v -0.182884 c 0,-0.112501 0.07329,-0.182884 0.146449,-0.182884 z"
       style="line-height:normal;text-indent:0;text-align:start;text-decoration:none;text-decoration-line:none;text-decoration-style:solid;text-decoration-color:#000000;text-transform:none;isolation:auto;mix-blend-mode:normal;stroke-width:0.1828832"
       inkscape:connector-curvature="0"
       inkscape:export-xdpi="96"
       inkscape:export-ydpi="96" />
  </g>
</svg>
