<?xml version="1.0" encoding="UTF-8" standalone="no"?>
<svg
   xmlns:dc="http://purl.org/dc/elements/1.1/"
   xmlns:cc="http://creativecommons.org/ns#"
   xmlns:rdf="http://www.w3.org/1999/02/22-rdf-syntax-ns#"
   xmlns:svg="http://www.w3.org/2000/svg"
   xmlns="http://www.w3.org/2000/svg"
   xmlns:sodipodi="http://sodipodi.sourceforge.net/DTD/sodipodi-0.dtd"
   xmlns:inkscape="http://www.inkscape.org/namespaces/inkscape"
   version="1.1"
   id="Layer_1"
   x="0px"
   y="0px"
   viewBox="0 0 48 52"
   xml:space="preserve"
   sodipodi:docname="splitfile.svg"
   width="48"
   height="52"
   inkscape:version="0.92.3 (2405546, 2018-03-11)"><metadata
   id="metadata51"><rdf:RDF><cc:Work
       rdf:about=""><dc:format>image/svg+xml</dc:format><dc:type
         rdf:resource="http://purl.org/dc/dcmitype/StillImage" /></cc:Work></rdf:RDF></metadata><defs
   id="defs49" /><sodipodi:namedview
   pagecolor="#ffffff"
   bordercolor="#666666"
   borderopacity="1"
   objecttolerance="10"
   gridtolerance="10"
   guidetolerance="10"
   inkscape:pageopacity="0"
   inkscape:pageshadow="2"
   inkscape:window-width="1136"
   inkscape:window-height="651"
   id="namedview47"
   showgrid="false"
   inkscape:zoom="1.3037281"
   inkscape:cx="86.34364"
   inkscape:cy="-1.0474182"
   inkscape:window-x="1913"
   inkscape:window-y="168"
   inkscape:window-maximized="0"
   inkscape:current-layer="Layer_1" />
<style
   type="text/css"
   id="style2">
	.st0{fill:url(#SVGID_1__59946);}
	.st1{fill:url(#SVGID_2__59946);}
	.st2{fill:url(#SVGID_3__59946);}
	.st3{fill:url(#SVGID_4__59946);}
	.st4{fill:url(#SVGID_5__59946);}
	.st5{fill:url(#SVGID_6__59946);}
</style>
<linearGradient
   id="SVGID_1__59946"
   gradientUnits="userSpaceOnUse"
   x1="24.000099"
   y1="887.0849"
   x2="24.000099"
   y2="894.9281"
   gradientTransform="matrix(-1,0,0,1,36.0002,-860)"
   spreadMethod="reflect">
	<stop
   offset="0"
   style="stop-color:#6DC7FF"
   id="stop4" />
	<stop
   offset="1"
   style="stop-color:#E6ABFF"
   id="stop6" />
</linearGradient>
<path
   class="st0"
   d="M 4.5,30 9,27.2 c 0.9,-0.5 2,0.1 2,1.1 V 30 h 9 v 2 h -9 v 1.7 c 0,1 -1.1,1.6 -2,1.1 L 4.5,32 c -0.7,-0.5 -0.7,-1.5 0,-2 z"
   id="path9"
   inkscape:connector-curvature="0"
   style="fill:#1a6dff;fill-opacity:1" />
<linearGradient
   id="SVGID_2__59946"
   gradientUnits="userSpaceOnUse"
   x1="39.502899"
   y1="879.0849"
   x2="39.502899"
   y2="886.9281"
   gradientTransform="matrix(-1,0,0,1,75.0058,-860)"
   spreadMethod="reflect">
	<stop
   offset="0"
   style="stop-color:#6DC7FF"
   id="stop11" />
	<stop
   offset="1"
   style="stop-color:#E6ABFF"
   id="stop13" />
</linearGradient>
<path
   class="st1"
   d="M 43.5,24 39,26.8 c -0.9,0.5 -2,-0.1 -2,-1.1 V 24 H 27 v -2 h 10 v -1.7 c 0,-1 1.1,-1.6 2,-1.1 l 4.5,2.8 c 0.7,0.5 0.7,1.5 0,2 z"
   id="path16"
   inkscape:connector-curvature="0"
   style="fill:#1a6dff;fill-opacity:1" />
<linearGradient
   id="SVGID_3__59946"
   gradientUnits="userSpaceOnUse"
   x1="36.250999"
   y1="59.625"
   x2="36.250999"
   y2="8.6097002"
   gradientTransform="matrix(1,0,0,-1,0,66)"
   spreadMethod="reflect">
	<stop
   offset="0"
   style="stop-color:#1A6DFF"
   id="stop18" />
	<stop
   offset="1"
   style="stop-color:#C822FF"
   id="stop20" />
</linearGradient>
<polygon
   class="st2"
   points="35.5,36.5 38.7,42.6 37,43.5 33.8,37.5 "
   id="polygon23"
   style="fill:url(#SVGID_3__59946)"
   transform="translate(-8,-6)" />
<linearGradient
   id="SVGID_4__59946"
   gradientUnits="userSpaceOnUse"
   x1="31.972"
   y1="59.5"
   x2="31.972"
   y2="8.4994001"
   gradientTransform="matrix(1,0,0,-1,0,66)"
   spreadMethod="reflect">
	<stop
   offset="0"
   style="stop-color:#1A6DFF"
   id="stop25" />
	<stop
   offset="1"
   style="stop-color:#C822FF"
   id="stop27" />
</linearGradient>
<polygon
   class="st3"
   points="31.2,28.4 34.5,34.5 32.7,35.5 29.5,29.4 "
   id="polygon30"
   style="fill:url(#SVGID_4__59946)"
   transform="translate(-8,-6)" />
<linearGradient
   id="SVGID_5__59946"
   gradientUnits="userSpaceOnUse"
   x1="27.7805"
   y1="59.875"
   x2="27.7805"
   y2="8.5298004"
   gradientTransform="matrix(1,0,0,-1,0,66)"
   spreadMethod="reflect">
	<stop
   offset="0"
   style="stop-color:#1A6DFF"
   id="stop32" />
	<stop
   offset="1"
   style="stop-color:#C822FF"
   id="stop34" />
</linearGradient>
<polygon
   class="st4"
   points="27.1,20.6 30.2,26.5 28.5,27.4 25.3,21.5 "
   id="polygon37"
   style="fill:url(#SVGID_5__59946)"
   transform="translate(-8,-6)" />
<linearGradient
   id="SVGID_6__59946"
   gradientUnits="userSpaceOnUse"
   x1="32"
   y1="60"
   x2="32"
   y2="8"
   gradientTransform="matrix(1,0,0,-1,-8,60)"
   spreadMethod="reflect">
	<stop
   offset="0"
   style="stop-color:#1A6DFF"
   id="stop39" />
	<stop
   offset="1"
   style="stop-color:#C822FF"
   id="stop41" />
</linearGradient>
<path
   class="st5"
   d="M 47.1,8.7 39.3,0.9 C 38.7,0.3 38,0 37.2,0 H 17 C 15.3,0 14,1.3 14,3 V 8 H 3 C 1.3,8 0,9.3 0,11 v 38 c 0,1.7 1.3,3 3,3 h 28 c 1.7,0 3,-1.3 3,-3 v -5 h 11 c 1.7,0 3,-1.3 3,-3 V 10.8 C 48,10 47.7,9.3 47.1,8.7 Z M 39,3.4 44.6,9 H 40 C 39.4,9 39,8.6 39,8 Z M 46,41 c 0,0.6 -0.4,1 -1,1 H 33.6 l -1.8,-3.5 -1.8,1 2,3.8 v 0.7 5 c 0,0.6 -0.4,1 -1,1 H 3 C 2.4,50 2,49.6 2,49 V 11 c 0,-0.6 0.4,-1 1,-1 h 11 0.4 L 16.2,13.4 18,12.5 16,8.8 V 3 c 0,-0.6 0.4,-1 1,-1 h 20 v 6 c 0,1.7 1.3,3 3,3 h 6 z"
   id="path44"
   inkscape:connector-curvature="0"
   style="fill:url(#SVGID_6__59946)" />
</svg>