<?xml version="1.0" encoding="UTF-8" standalone="no"?>
<svg
   xmlns:dc="http://purl.org/dc/elements/1.1/"
   xmlns:cc="http://creativecommons.org/ns#"
   xmlns:rdf="http://www.w3.org/1999/02/22-rdf-syntax-ns#"
   xmlns:svg="http://www.w3.org/2000/svg"
   xmlns="http://www.w3.org/2000/svg"
   xmlns:sodipodi="http://sodipodi.sourceforge.net/DTD/sodipodi-0.dtd"
   xmlns:inkscape="http://www.inkscape.org/namespaces/inkscape"
   id="qrcode-svg"
   style="stroke:none"
   viewBox="0 0 120 120"
   version="1.1"
   sodipodi:docname="eth.svg"
   inkscape:version="0.92.3 (2405546, 2018-03-11)"
   width="120"
   height="120">
  <metadata
     id="metadata11">
    <rdf:RDF>
      <cc:Work
         rdf:about="">
        <dc:format>image/svg+xml</dc:format>
        <dc:type
           rdf:resource="http://purl.org/dc/dcmitype/StillImage" />
      </cc:Work>
    </rdf:RDF>
  </metadata>
  <defs
     id="defs9" />
  <sodipodi:namedview
     pagecolor="#ffffff"
     bordercolor="#666666"
     borderopacity="1"
     objecttolerance="10"
     gridtolerance="10"
     guidetolerance="10"
     inkscape:pageopacity="0"
     inkscape:pageshadow="2"
     inkscape:window-width="1127"
     inkscape:window-height="745"
     id="namedview7"
     showgrid="false"
     inkscape:zoom="6.0512821"
     inkscape:cx="60"
     inkscape:cy="60"
     inkscape:window-x="1934"
     inkscape:window-y="70"
     inkscape:window-maximized="0"
     inkscape:current-layer="qrcode-svg" />
  <rect
     width="307.69232%"
     height="307.69232%"
     id="rect2"
     x="0"
     y="0"
     style="fill:#ffffff;stroke-width:3.07692313" />
  <path
     d="M 3.076923,3.076923 H 6.153846 V 6.153846 H 3.076923 Z m 3.076923,0 H 9.230769 V 6.153846 H 6.153846 Z m 3.076923,0 h 3.076923 V 6.153846 H 9.230769 Z m 3.076923,0 h 3.076923 v 3.076923 h -3.076923 z m 3.076923,0 h 3.076923 v 3.076923 h -3.076923 z m 3.076923,0 h 3.076924 v 3.076923 h -3.076924 z m 3.076924,0 h 3.076923 v 3.076923 h -3.076923 z m 6.153846,0 h 3.076923 v 3.076923 h -3.076923 z m 9.230769,0 H 40 v 3.076923 h -3.076923 z m 3.076923,0 h 3.076923 V 6.153846 H 40 Z m 9.230769,0 h 3.076923 v 3.076923 h -3.076923 z m 3.076923,0 h 3.076923 v 3.076923 h -3.076923 z m 9.23077,0 h 3.076923 v 3.076923 h -3.076923 z m 3.076923,0 h 3.076923 v 3.076923 h -3.076923 z m 6.153846,0 h 3.076923 v 3.076923 h -3.076923 z m 6.153846,0 H 80 v 3.076923 h -3.076923 z m 3.076923,0 h 3.076923 V 6.153846 H 80 Z m 3.076923,0 h 3.076923 v 3.076923 h -3.076923 z m 12.307692,0 h 3.076923 v 3.076923 h -3.076923 z m 3.076923,0 h 3.076922 v 3.076923 h -3.076922 z m 3.076922,0 h 3.07693 v 3.076923 h -3.07693 z m 3.07693,0 h 3.07692 v 3.076923 h -3.07692 z m 3.07692,0 h 3.07692 v 3.076923 h -3.07692 z m 3.07692,0 h 3.07692 v 3.076923 h -3.07692 z m 3.07692,0 h 3.07693 v 3.076923 h -3.07693 z M 3.076923,6.153846 H 6.153846 V 9.230769 H 3.076923 Z m 18.461539,0 h 3.076923 v 3.076923 h -3.076923 z m 6.153846,0 h 3.076923 v 3.076923 h -3.076923 z m 12.307692,0 h 3.076923 V 9.230769 H 40 Z m 3.076923,0 h 3.076923 v 3.076923 h -3.076923 z m 3.076923,0 h 3.076923 v 3.076923 h -3.076923 z m 3.076923,0 h 3.076923 v 3.076923 h -3.076923 z m 3.076923,0 h 3.076923 v 3.076923 h -3.076923 z m 3.076923,0 h 3.076923 v 3.076923 h -3.076923 z m 3.076923,0 h 3.076924 v 3.076923 h -3.076924 z m 9.23077,0 h 3.076923 v 3.076923 h -3.076923 z m 3.076923,0 h 3.076923 v 3.076923 h -3.076923 z m 3.076923,0 h 3.076923 v 3.076923 h -3.076923 z m 3.076923,0 H 80 v 3.076923 h -3.076923 z m 9.230769,0 h 3.076923 v 3.076923 h -3.076923 z m 9.230769,0 h 3.076923 v 3.076923 h -3.076923 z m 18.461535,0 h 3.07693 v 3.076923 h -3.07693 z M 3.076923,9.230769 h 3.076923 v 3.076923 H 3.076923 Z m 6.153846,0 h 3.076923 v 3.076923 H 9.230769 Z m 3.076923,0 h 3.076923 v 3.076923 h -3.076923 z m 3.076923,0 h 3.076923 v 3.076923 h -3.076923 z m 6.153847,0 h 3.076923 v 3.076923 h -3.076923 z m 6.153846,0 h 3.076923 v 3.076923 h -3.076923 z m 9.230769,0 H 40 v 3.076923 h -3.076923 z m 6.153846,0 h 3.076923 v 3.076923 h -3.076923 z m 9.230769,0 h 3.076923 v 3.076923 h -3.076923 z m 3.076923,0 h 3.076923 v 3.076923 h -3.076923 z m 6.153847,0 h 3.076923 v 3.076923 h -3.076923 z m 9.230769,0 h 3.076923 v 3.076923 h -3.076923 z m 3.076923,0 h 3.076923 v 3.076923 h -3.076923 z m 12.307692,0 h 3.076923 v 3.076923 h -3.076923 z m 9.230769,0 h 3.076923 v 3.076923 h -3.076923 z m 6.153845,0 h 3.07692 v 3.076923 h -3.07692 z m 3.07692,0 h 3.07693 v 3.076923 h -3.07693 z m 3.07693,0 h 3.07692 v 3.076923 h -3.07692 z m 6.15384,0 h 3.07693 v 3.076923 h -3.07693 z M 3.076923,12.307692 h 3.076923 v 3.076923 H 3.076923 Z m 6.153846,0 h 3.076923 v 3.076923 H 9.230769 Z m 3.076923,0 h 3.076923 v 3.076923 h -3.076923 z m 3.076923,0 h 3.076923 v 3.076923 h -3.076923 z m 6.153847,0 h 3.076923 v 3.076923 h -3.076923 z m 12.307692,0 h 3.076923 v 3.076923 h -3.076923 z m 3.076923,0 H 40 v 3.076923 h -3.076923 z m 3.076923,0 h 3.076923 v 3.076923 H 40 Z m 6.153846,0 h 3.076923 v 3.076923 h -3.076923 z m 6.153846,0 h 3.076923 v 3.076923 h -3.076923 z m 3.076923,0 h 3.076923 v 3.076923 h -3.076923 z m 3.076923,0 h 3.076924 v 3.076923 h -3.076924 z m 9.23077,0 h 3.076923 v 3.076923 h -3.076923 z m 15.384615,0 h 3.076923 v 3.076923 h -3.076923 z m 6.153846,0 h 3.076923 v 3.076923 h -3.076923 z m 6.153846,0 h 3.076923 v 3.076923 h -3.076923 z m 6.153845,0 h 3.07692 v 3.076923 h -3.07692 z m 3.07692,0 h 3.07693 v 3.076923 h -3.07693 z m 3.07693,0 h 3.07692 v 3.076923 h -3.07692 z m 6.15384,0 h 3.07693 v 3.076923 h -3.07693 z M 3.076923,15.384615 h 3.076923 v 3.076923 H 3.076923 Z m 6.153846,0 h 3.076923 v 3.076923 H 9.230769 Z m 3.076923,0 h 3.076923 v 3.076923 h -3.076923 z m 3.076923,0 h 3.076923 v 3.076923 h -3.076923 z m 6.153847,0 h 3.076923 v 3.076923 h -3.076923 z m 9.230769,0 h 3.076923 v 3.076923 h -3.076923 z m 18.461538,0 h 3.076923 v 3.076923 h -3.076923 z m 3.076923,0 h 3.076923 v 3.076923 h -3.076923 z m 6.153846,0 h 3.076924 v 3.076923 h -3.076924 z m 6.153847,0 h 3.076923 v 3.076923 h -3.076923 z m 3.076923,0 h 3.076923 v 3.076923 h -3.076923 z m 3.076923,0 h 3.076923 v 3.076923 h -3.076923 z m 24.615384,0 h 3.076923 v 3.076923 h -3.076923 z m 6.153845,0 h 3.07692 v 3.076923 h -3.07692 z m 3.07692,0 h 3.07693 v 3.076923 h -3.07693 z m 3.07693,0 h 3.07692 v 3.076923 h -3.07692 z m 6.15384,0 h 3.07693 v 3.076923 h -3.07693 z M 3.076923,18.461538 h 3.076923 v 3.076924 H 3.076923 Z m 18.461539,0 h 3.076923 v 3.076924 h -3.076923 z m 6.153846,0 h 3.076923 v 3.076924 h -3.076923 z m 3.076923,0 h 3.076923 v 3.076924 h -3.076923 z m 15.384615,0 h 3.076923 v 3.076924 h -3.076923 z m 15.384616,0 h 3.076923 v 3.076924 h -3.076923 z m 3.076923,0 h 3.076923 v 3.076924 h -3.076923 z m 3.076923,0 h 3.076923 v 3.076924 h -3.076923 z m 18.461538,0 h 3.076923 v 3.076924 h -3.076923 z m 3.076923,0 h 3.076923 v 3.076924 h -3.076923 z m 6.153846,0 h 3.076923 v 3.076924 h -3.076923 z m 18.461535,0 h 3.07693 v 3.076924 h -3.07693 z M 3.076923,21.538462 h 3.076923 v 3.076923 H 3.076923 Z m 3.076923,0 h 3.076923 v 3.076923 H 6.153846 Z m 3.076923,0 h 3.076923 v 3.076923 H 9.230769 Z m 3.076923,0 h 3.076923 v 3.076923 h -3.076923 z m 3.076923,0 h 3.076923 v 3.076923 h -3.076923 z m 3.076923,0 h 3.076924 v 3.076923 h -3.076924 z m 3.076924,0 h 3.076923 v 3.076923 h -3.076923 z m 6.153846,0 h 3.076923 v 3.076923 h -3.076923 z m 6.153846,0 h 3.076923 v 3.076923 h -3.076923 z m 6.153846,0 h 3.076923 v 3.076923 H 40 Z m 6.153846,0 h 3.076923 v 3.076923 h -3.076923 z m 6.153846,0 h 3.076923 v 3.076923 h -3.076923 z m 6.153846,0 h 3.076924 v 3.076923 h -3.076924 z m 6.153847,0 h 3.076923 v 3.076923 h -3.076923 z m 6.153846,0 h 3.076923 v 3.076923 h -3.076923 z m 6.153846,0 H 80 v 3.076923 h -3.076923 z m 6.153846,0 h 3.076923 v 3.076923 h -3.076923 z m 6.153846,0 h 3.076923 v 3.076923 h -3.076923 z m 6.153846,0 h 3.076923 v 3.076923 h -3.076923 z m 3.076923,0 h 3.076922 v 3.076923 h -3.076922 z m 3.076922,0 h 3.07692 v 3.076923 h -3.07692 z m 3.07692,0 h 3.07693 v 3.076923 h -3.07693 z m 3.07693,0 h 3.07692 v 3.076923 h -3.07692 z m 3.07692,0 h 3.07692 v 3.076923 h -3.07692 z m 3.07692,0 h 3.07693 v 3.076923 h -3.07693 z m -86.153842,3.076923 h 3.076923 v 3.076923 h -3.076923 z m 18.461538,0 h 3.076923 v 3.076923 h -3.076923 z m 3.076923,0 h 3.076923 v 3.076923 h -3.076923 z m 3.076923,0 h 3.076923 v 3.076923 h -3.076923 z m 3.076923,0 h 3.076923 v 3.076923 h -3.076923 z m 3.076923,0 h 3.076924 v 3.076923 h -3.076924 z m 9.23077,0 h 3.076923 v 3.076923 h -3.076923 z m 3.076923,0 h 3.076923 v 3.076923 h -3.076923 z m 12.307692,0 h 3.076923 v 3.076923 h -3.076923 z m 6.153846,0 h 3.076923 v 3.076923 h -3.076923 z m -80,3.076923 h 3.076923 v 3.076923 H 9.230769 Z m 3.076923,0 h 3.076923 v 3.076923 h -3.076923 z m 3.076923,0 h 3.076923 v 3.076923 h -3.076923 z m 6.153847,0 h 3.076923 v 3.076923 h -3.076923 z m 6.153846,0 h 3.076923 v 3.076923 h -3.076923 z m 3.076923,0 h 3.076923 v 3.076923 h -3.076923 z m 3.076923,0 h 3.076923 v 3.076923 h -3.076923 z m 3.076923,0 H 40 v 3.076923 h -3.076923 z m 3.076923,0 h 3.076923 v 3.076923 H 40 Z m 3.076923,0 h 3.076923 v 3.076923 h -3.076923 z m 6.153846,0 h 3.076923 v 3.076923 h -3.076923 z m 9.230769,0 h 3.076924 v 3.076923 h -3.076924 z m 3.076924,0 h 3.076923 v 3.076923 h -3.076923 z m 3.076923,0 h 3.076923 v 3.076923 h -3.076923 z m 3.076923,0 h 3.076923 v 3.076923 h -3.076923 z m 3.076923,0 h 3.076923 v 3.076923 h -3.076923 z m 6.153846,0 H 80 v 3.076923 h -3.076923 z m 3.076923,0 h 3.076923 v 3.076923 H 80 Z m 3.076923,0 h 3.076923 v 3.076923 h -3.076923 z m 3.076923,0 h 3.076923 v 3.076923 h -3.076923 z m 6.153846,0 h 3.076923 v 3.076923 h -3.076923 z m 3.076923,0 h 3.076923 v 3.076923 h -3.076923 z m 3.076923,0 h 3.076922 v 3.076923 h -3.076922 z m 9.230772,0 h 3.07692 v 3.076923 h -3.07692 z m 3.07692,0 h 3.07692 v 3.076923 h -3.07692 z m 3.07692,0 h 3.07693 v 3.076923 h -3.07693 z M 3.076923,30.769231 h 3.076923 v 3.076923 H 3.076923 Z m 6.153846,0 h 3.076923 v 3.076923 H 9.230769 Z m 6.153846,0 h 3.076923 v 3.076923 h -3.076923 z m 18.461539,0 h 3.076923 v 3.076923 h -3.076923 z m 6.153846,0 h 3.076923 v 3.076923 H 40 Z m 6.153846,0 h 3.076923 v 3.076923 h -3.076923 z m 6.153846,0 h 3.076923 v 3.076923 h -3.076923 z m 6.153846,0 h 3.076924 v 3.076923 h -3.076924 z m 6.153847,0 h 3.076923 v 3.076923 h -3.076923 z m 3.076923,0 h 3.076923 v 3.076923 h -3.076923 z m 9.230769,0 H 80 v 3.076923 h -3.076923 z m 12.307692,0 h 3.076923 v 3.076923 h -3.076923 z m 3.076923,0 h 3.076923 v 3.076923 h -3.076923 z m 18.461538,0 h 3.07692 v 3.076923 h -3.07692 z M 3.076923,33.846154 h 3.076923 v 3.076923 H 3.076923 Z m 6.153846,0 h 3.076923 v 3.076923 H 9.230769 Z m 9.230769,0 h 3.076924 v 3.076923 h -3.076924 z m 3.076924,0 h 3.076923 v 3.076923 h -3.076923 z m 3.076923,0 h 3.076923 v 3.076923 h -3.076923 z m 6.153846,0 h 3.076923 v 3.076923 h -3.076923 z m 6.153846,0 H 40 v 3.076923 h -3.076923 z m 12.307692,0 h 3.076923 v 3.076923 h -3.076923 z m 3.076923,0 h 3.076923 v 3.076923 h -3.076923 z m 6.153846,0 h 3.076924 v 3.076923 h -3.076924 z m 3.076924,0 h 3.076923 v 3.076923 h -3.076923 z m 6.153846,0 h 3.076923 v 3.076923 h -3.076923 z m 3.076923,0 h 3.076923 v 3.076923 h -3.076923 z m 3.076923,0 h 3.076923 v 3.076923 h -3.076923 z m 12.307692,0 h 3.076923 v 3.076923 h -3.076923 z m 9.230769,0 h 3.076923 v 3.076923 h -3.076923 z m 3.076923,0 h 3.076922 v 3.076923 h -3.076922 z m 3.076922,0 h 3.07692 v 3.076923 h -3.07692 z m 12.30769,0 h 3.07693 v 3.076923 h -3.07693 z M 6.153846,36.923077 H 9.230769 V 40 H 6.153846 Z m 12.307692,0 h 3.076924 V 40 h -3.076924 z m 21.538462,0 h 3.076923 V 40 H 40 Z m 3.076923,0 h 3.076923 V 40 h -3.076923 z m 3.076923,0 h 3.076923 V 40 h -3.076923 z m 3.076923,0 h 3.076923 V 40 h -3.076923 z m 6.153846,0 h 3.076923 V 40 h -3.076923 z m 3.076923,0 h 3.076924 V 40 h -3.076924 z m 3.076924,0 h 3.076923 V 40 h -3.076923 z m 6.153846,0 h 3.076923 V 40 h -3.076923 z m 18.461538,0 h 3.076923 V 40 h -3.076923 z m 9.230769,0 h 3.076923 V 40 h -3.076923 z m 9.230765,0 h 3.07693 V 40 h -3.07693 z m 9.23077,0 h 3.07693 V 40 h -3.07693 z M 12.307692,40 h 3.076923 v 3.076923 h -3.076923 z m 3.076923,0 h 3.076923 v 3.076923 h -3.076923 z m 3.076923,0 h 3.076924 v 3.076923 h -3.076924 z m 3.076924,0 h 3.076923 v 3.076923 h -3.076923 z m 3.076923,0 h 3.076923 v 3.076923 h -3.076923 z m 3.076923,0 h 3.076923 v 3.076923 h -3.076923 z m 3.076923,0 h 3.076923 v 3.076923 h -3.076923 z m 15.384615,0 h 3.076923 v 3.076923 h -3.076923 z m 6.153846,0 h 3.076923 v 3.076923 h -3.076923 z m 12.307693,0 h 3.076923 v 3.076923 h -3.076923 z m 3.076923,0 h 3.076923 v 3.076923 h -3.076923 z m 6.153846,0 h 3.076923 v 3.076923 H 73.846154 Z M 80,40 h 3.076923 v 3.076923 H 80 Z m 3.076923,0 h 3.076923 v 3.076923 h -3.076923 z m 6.153846,0 h 3.076923 v 3.076923 h -3.076923 z m 6.153846,0 h 3.076923 v 3.076923 h -3.076923 z m 3.076923,0 h 3.076922 v 3.076923 h -3.076922 z m 3.076922,0 h 3.07693 v 3.076923 h -3.07693 z m 6.15385,0 h 3.07692 v 3.076923 h -3.07692 z m 6.15384,0 h 3.07693 v 3.076923 h -3.07693 z M 3.076923,43.076923 h 3.076923 v 3.076923 H 3.076923 Z m 6.153846,0 h 3.076923 v 3.076923 H 9.230769 Z m 3.076923,0 h 3.076923 v 3.076923 h -3.076923 z m 3.076923,0 h 3.076923 v 3.076923 h -3.076923 z m 9.23077,0 h 3.076923 v 3.076923 h -3.076923 z m 3.076923,0 h 3.076923 v 3.076923 h -3.076923 z m 6.153846,0 h 3.076923 v 3.076923 h -3.076923 z m 3.076923,0 H 40 v 3.076923 h -3.076923 z m 9.230769,0 h 3.076923 v 3.076923 h -3.076923 z m 3.076923,0 h 3.076923 v 3.076923 h -3.076923 z m 3.076923,0 h 3.076923 v 3.076923 h -3.076923 z m 3.076923,0 h 3.076923 v 3.076923 h -3.076923 z m 9.23077,0 h 3.076923 v 3.076923 h -3.076923 z m 3.076923,0 h 3.076923 v 3.076923 h -3.076923 z m 24.615384,0 h 3.076923 v 3.076923 h -3.076923 z m 12.307698,0 h 3.07692 v 3.076923 h -3.07692 z m 6.15384,0 h 3.07692 v 3.076923 h -3.07692 z M 3.076923,46.153846 h 3.076923 v 3.076923 H 3.076923 Z m 12.307692,0 h 3.076923 v 3.076923 h -3.076923 z m 6.153847,0 h 3.076923 v 3.076923 h -3.076923 z m 3.076923,0 h 3.076923 v 3.076923 h -3.076923 z m 6.153846,0 h 3.076923 v 3.076923 h -3.076923 z m 3.076923,0 h 3.076923 v 3.076923 h -3.076923 z m 6.153846,0 h 3.076923 v 3.076923 H 40 Z m 12.307692,0 h 3.076923 v 3.076923 h -3.076923 z m 6.153846,0 h 3.076924 v 3.076923 h -3.076924 z m 3.076924,0 h 3.076923 v 3.076923 h -3.076923 z m 9.230769,0 h 3.076923 v 3.076923 h -3.076923 z m 12.307692,0 h 3.076923 v 3.076923 h -3.076923 z m 3.076923,0 h 3.076923 v 3.076923 h -3.076923 z m 3.076923,0 h 3.076923 v 3.076923 h -3.076923 z m 12.307691,0 h 3.07692 v 3.076923 h -3.07692 z m 3.07692,0 h 3.07693 v 3.076923 h -3.07693 z m 9.23077,0 h 3.07693 v 3.076923 h -3.07693 z M 6.153846,49.230769 h 3.076923 v 3.076923 H 6.153846 Z m 21.538462,0 h 3.076923 v 3.076923 h -3.076923 z m 3.076923,0 h 3.076923 v 3.076923 h -3.076923 z m 3.076923,0 h 3.076923 v 3.076923 h -3.076923 z m 3.076923,0 H 40 v 3.076923 h -3.076923 z m 18.461538,0 h 3.076923 v 3.076923 h -3.076923 z m 6.153847,0 h 3.076923 v 3.076923 h -3.076923 z m 9.230769,0 h 3.076923 v 3.076923 h -3.076923 z m 12.307692,0 h 3.076923 v 3.076923 h -3.076923 z m 12.307692,0 h 3.076923 v 3.076923 h -3.076923 z m 15.384615,0 h 3.07692 v 3.076923 h -3.07692 z M 9.230769,52.307692 h 3.076923 v 3.076923 H 9.230769 Z m 9.230769,0 h 3.076924 v 3.076923 h -3.076924 z m 3.076924,0 h 3.076923 v 3.076923 h -3.076923 z m 3.076923,0 h 3.076923 v 3.076923 h -3.076923 z m 6.153846,0 h 3.076923 v 3.076923 h -3.076923 z m 3.076923,0 h 3.076923 v 3.076923 h -3.076923 z m 3.076923,0 H 40 v 3.076923 h -3.076923 z m 6.153846,0 h 3.076923 v 3.076923 h -3.076923 z m 3.076923,0 h 3.076923 v 3.076923 h -3.076923 z m 3.076923,0 h 3.076923 v 3.076923 h -3.076923 z m 18.461539,0 h 3.076923 v 3.076923 h -3.076923 z m 9.230769,0 H 80 v 3.076923 h -3.076923 z m 3.076923,0 h 3.076923 v 3.076923 H 80 Z m 6.153846,0 h 3.076923 v 3.076923 h -3.076923 z m 3.076923,0 h 3.076923 v 3.076923 h -3.076923 z m 6.153846,0 h 3.076923 v 3.076923 h -3.076923 z m 3.076923,0 h 3.076922 v 3.076923 h -3.076922 z m 3.076922,0 h 3.07693 v 3.076923 h -3.07693 z m 6.15385,0 h 3.07692 v 3.076923 h -3.07692 z m 6.15384,0 h 3.07693 v 3.076923 h -3.07693 z M 3.076923,55.384615 h 3.076923 v 3.076923 H 3.076923 Z m 6.153846,0 h 3.076923 v 3.076923 H 9.230769 Z m 6.153846,0 h 3.076923 v 3.076923 h -3.076923 z m 3.076923,0 h 3.076924 v 3.076923 h -3.076924 z m 9.23077,0 h 3.076923 v 3.076923 h -3.076923 z m 6.153846,0 h 3.076923 v 3.076923 h -3.076923 z m 3.076923,0 H 40 v 3.076923 h -3.076923 z m 3.076923,0 h 3.076923 v 3.076923 H 40 Z m 6.153846,0 h 3.076923 v 3.076923 h -3.076923 z m 9.230769,0 h 3.076923 v 3.076923 h -3.076923 z m 12.307693,0 h 3.076923 v 3.076923 h -3.076923 z m 3.076923,0 h 3.076923 v 3.076923 h -3.076923 z m 12.307692,0 h 3.076923 v 3.076923 h -3.076923 z m 9.230769,0 h 3.076923 v 3.076923 h -3.076923 z m 12.307698,0 h 3.07692 v 3.076923 h -3.07692 z m 6.15384,0 h 3.07692 v 3.076923 h -3.07692 z M 6.153846,58.461538 h 3.076923 v 3.076924 H 6.153846 Z m 3.076923,0 h 3.076923 v 3.076924 H 9.230769 Z m 3.076923,0 h 3.076923 v 3.076924 h -3.076923 z m 6.153846,0 h 3.076924 v 3.076924 h -3.076924 z m 3.076924,0 h 3.076923 v 3.076924 h -3.076923 z m 3.076923,0 h 3.076923 v 3.076924 h -3.076923 z m 18.461538,0 h 3.076923 v 3.076924 h -3.076923 z m 6.153846,0 h 3.076923 v 3.076924 h -3.076923 z m 3.076923,0 h 3.076923 v 3.076924 h -3.076923 z m 9.23077,0 h 3.076923 v 3.076924 h -3.076923 z m 3.076923,0 h 3.076923 v 3.076924 h -3.076923 z m 3.076923,0 h 3.076923 v 3.076924 h -3.076923 z m 6.153846,0 h 3.076923 v 3.076924 h -3.076923 z m 3.076923,0 H 80 v 3.076924 h -3.076923 z m 6.153846,0 h 3.076923 v 3.076924 h -3.076923 z m 3.076923,0 h 3.076923 v 3.076924 h -3.076923 z m 9.230769,0 h 3.076923 v 3.076924 h -3.076923 z m 3.076923,0 h 3.076922 v 3.076924 h -3.076922 z m 15.384612,0 h 3.07693 v 3.076924 h -3.07693 z M 3.076923,61.538462 h 3.076923 v 3.076923 H 3.076923 Z m 12.307692,0 h 3.076923 v 3.076923 h -3.076923 z m 3.076923,0 h 3.076924 v 3.076923 h -3.076924 z m 9.23077,0 h 3.076923 v 3.076923 h -3.076923 z m 9.230769,0 H 40 v 3.076923 h -3.076923 z m 3.076923,0 h 3.076923 v 3.076923 H 40 Z m 3.076923,0 h 3.076923 v 3.076923 h -3.076923 z m 12.307692,0 h 3.076923 v 3.076923 h -3.076923 z m 3.076923,0 h 3.076924 v 3.076923 h -3.076924 z m 3.076924,0 h 3.076923 v 3.076923 h -3.076923 z m 9.230769,0 h 3.076923 v 3.076923 h -3.076923 z m 6.153846,0 H 80 v 3.076923 h -3.076923 z m 6.153846,0 h 3.076923 v 3.076923 h -3.076923 z m 3.076923,0 h 3.076923 v 3.076923 h -3.076923 z m 3.076923,0 h 3.076923 v 3.076923 h -3.076923 z m 3.076923,0 h 3.076923 v 3.076923 h -3.076923 z m 6.153846,0 h 3.076922 v 3.076923 h -3.076922 z m 6.153852,0 h 3.07692 v 3.076923 h -3.07692 z m -92.307698,3.076923 h 3.076923 v 3.076923 h -3.076923 z m 3.076923,0 h 3.076923 v 3.076923 h -3.076923 z m 6.153847,0 h 3.076923 v 3.076923 h -3.076923 z m 6.153846,0 h 3.076923 v 3.076923 h -3.076923 z m 3.076923,0 h 3.076923 v 3.076923 h -3.076923 z m 3.076923,0 h 3.076923 v 3.076923 h -3.076923 z m 15.384615,0 h 3.076923 v 3.076923 h -3.076923 z m 3.076923,0 h 3.076923 v 3.076923 h -3.076923 z m 3.076923,0 h 3.076923 v 3.076923 h -3.076923 z m 3.076923,0 h 3.076924 v 3.076923 h -3.076924 z m 3.076924,0 h 3.076923 v 3.076923 h -3.076923 z m 3.076923,0 h 3.076923 v 3.076923 h -3.076923 z m 9.230769,0 h 3.076923 v 3.076923 h -3.076923 z m 6.153846,0 h 3.076923 v 3.076923 H 80 Z m 6.153846,0 h 3.076923 v 3.076923 h -3.076923 z m 3.076923,0 h 3.076923 v 3.076923 h -3.076923 z m 3.076923,0 h 3.076923 v 3.076923 h -3.076923 z m 3.076923,0 h 3.076923 v 3.076923 h -3.076923 z m 3.076923,0 h 3.076922 v 3.076923 h -3.076922 z m 3.076922,0 h 3.07693 v 3.076923 h -3.07693 z m 6.15385,0 h 3.07692 v 3.076923 h -3.07692 z M 3.076923,67.692308 h 3.076923 v 3.076923 H 3.076923 Z m 3.076923,0 h 3.076923 v 3.076923 H 6.153846 Z m 9.230769,0 h 3.076923 v 3.076923 h -3.076923 z m 3.076923,0 h 3.076924 v 3.076923 h -3.076924 z m 18.461539,0 H 40 v 3.076923 h -3.076923 z m 3.076923,0 h 3.076923 v 3.076923 H 40 Z m 12.307692,0 h 3.076923 v 3.076923 h -3.076923 z m 6.153846,0 h 3.076924 v 3.076923 h -3.076924 z m 3.076924,0 h 3.076923 v 3.076923 h -3.076923 z m 3.076923,0 h 3.076923 v 3.076923 h -3.076923 z m 3.076923,0 h 3.076923 v 3.076923 h -3.076923 z m 3.076923,0 h 3.076923 v 3.076923 h -3.076923 z m 3.076923,0 h 3.076923 v 3.076923 h -3.076923 z m 9.230769,0 h 3.076923 v 3.076923 h -3.076923 z m 12.307692,0 h 3.076923 v 3.076923 h -3.076923 z m 9.230775,0 h 3.07692 v 3.076923 h -3.07692 z M 3.076923,70.769231 h 3.076923 v 3.076923 H 3.076923 Z m 6.153846,0 h 3.076923 v 3.076923 H 9.230769 Z m 3.076923,0 h 3.076923 v 3.076923 h -3.076923 z m 9.23077,0 h 3.076923 v 3.076923 h -3.076923 z m 6.153846,0 h 3.076923 v 3.076923 h -3.076923 z m 15.384615,0 h 3.076923 v 3.076923 h -3.076923 z m 3.076923,0 h 3.076923 v 3.076923 h -3.076923 z m 12.307692,0 h 3.076924 v 3.076923 h -3.076924 z m 3.076924,0 h 3.076923 v 3.076923 h -3.076923 z m 9.230769,0 h 3.076923 v 3.076923 h -3.076923 z m 6.153846,0 H 80 v 3.076923 h -3.076923 z m 6.153846,0 h 3.076923 v 3.076923 h -3.076923 z m 3.076923,0 h 3.076923 v 3.076923 h -3.076923 z m 3.076923,0 h 3.076923 v 3.076923 h -3.076923 z m 15.384621,0 h 3.07692 v 3.076923 h -3.07692 z m 6.15384,0 h 3.07692 v 3.076923 h -3.07692 z m 3.07692,0 h 3.07693 v 3.076923 h -3.07693 z M 12.307692,73.846154 h 3.076923 v 3.076923 h -3.076923 z m 3.076923,0 h 3.076923 v 3.076923 h -3.076923 z m 9.23077,0 h 3.076923 v 3.076923 h -3.076923 z m 3.076923,0 h 3.076923 v 3.076923 h -3.076923 z m 3.076923,0 h 3.076923 v 3.076923 h -3.076923 z m 6.153846,0 H 40 v 3.076923 h -3.076923 z m 9.230769,0 h 3.076923 v 3.076923 h -3.076923 z m 3.076923,0 h 3.076923 v 3.076923 h -3.076923 z m 6.153846,0 h 3.076923 v 3.076923 h -3.076923 z m 3.076923,0 h 3.076924 v 3.076923 h -3.076924 z m 3.076924,0 h 3.076923 v 3.076923 h -3.076923 z m 12.307692,0 h 3.076923 v 3.076923 h -3.076923 z m 3.076923,0 H 80 v 3.076923 h -3.076923 z m 6.153846,0 h 3.076923 v 3.076923 h -3.076923 z m 9.230769,0 h 3.076923 v 3.076923 h -3.076923 z m 3.076923,0 h 3.076923 v 3.076923 h -3.076923 z m 3.076923,0 h 3.076922 v 3.076923 h -3.076922 z m 12.307692,0 h 3.07692 v 3.076923 h -3.07692 z m 3.07692,0 h 3.07693 v 3.076923 h -3.07693 z M 9.230769,76.923077 h 3.076923 V 80 H 9.230769 Z m 9.230769,0 h 3.076924 V 80 h -3.076924 z m 3.076924,0 h 3.076923 V 80 h -3.076923 z m 3.076923,0 h 3.076923 V 80 h -3.076923 z m 3.076923,0 h 3.076923 V 80 h -3.076923 z m 3.076923,0 h 3.076923 V 80 h -3.076923 z m 3.076923,0 h 3.076923 V 80 h -3.076923 z m 6.153846,0 h 3.076923 V 80 H 40 Z m 9.230769,0 h 3.076923 V 80 h -3.076923 z m 3.076923,0 h 3.076923 V 80 h -3.076923 z m 3.076923,0 h 3.076923 V 80 h -3.076923 z m 3.076923,0 h 3.076924 V 80 h -3.076924 z m 6.153847,0 h 3.076923 V 80 h -3.076923 z m 3.076923,0 h 3.076923 V 80 h -3.076923 z m 6.153846,0 h 3.076923 V 80 h -3.076923 z m 12.307692,0 h 3.076923 V 80 h -3.076923 z m 3.076923,0 h 3.076923 V 80 h -3.076923 z m 6.153846,0 h 3.076923 V 80 h -3.076923 z m 3.076923,0 h 3.076922 V 80 h -3.076922 z m 3.076922,0 h 3.07693 V 80 h -3.07693 z m 3.07693,0 h 3.07692 V 80 h -3.07692 z M 3.076923,80 h 3.076923 v 3.076923 H 3.076923 Z m 6.153846,0 h 3.076923 v 3.076923 H 9.230769 Z m 6.153846,0 h 3.076923 v 3.076923 h -3.076923 z m 3.076923,0 h 3.076924 v 3.076923 h -3.076924 z m 15.384616,0 h 3.076923 v 3.076923 h -3.076923 z m 3.076923,0 H 40 v 3.076923 h -3.076923 z m 18.461538,0 h 3.076923 v 3.076923 h -3.076923 z m 6.153847,0 h 3.076923 v 3.076923 h -3.076923 z m 3.076923,0 h 3.076923 v 3.076923 h -3.076923 z m 6.153846,0 h 3.076923 v 3.076923 h -3.076923 z m 6.153846,0 H 80 v 3.076923 h -3.076923 z m 15.384615,0 h 3.076923 v 3.076923 h -3.076923 z m 18.461538,0 h 3.07692 v 3.076923 h -3.07692 z M 3.076923,83.076923 h 3.076923 v 3.076923 H 3.076923 Z m 6.153846,0 h 3.076923 v 3.076923 H 9.230769 Z m 3.076923,0 h 3.076923 v 3.076923 h -3.076923 z m 3.076923,0 h 3.076923 v 3.076923 h -3.076923 z m 3.076923,0 h 3.076924 v 3.076923 h -3.076924 z m 3.076924,0 h 3.076923 v 3.076923 h -3.076923 z m 6.153846,0 h 3.076923 v 3.076923 h -3.076923 z m 9.230769,0 H 40 v 3.076923 h -3.076923 z m 3.076923,0 h 3.076923 v 3.076923 H 40 Z m 3.076923,0 h 3.076923 v 3.076923 h -3.076923 z m 9.230769,0 h 3.076923 v 3.076923 h -3.076923 z m 3.076923,0 h 3.076923 v 3.076923 h -3.076923 z m 6.153847,0 h 3.076923 v 3.076923 h -3.076923 z m 3.076923,0 h 3.076923 v 3.076923 h -3.076923 z m 3.076923,0 h 3.076923 v 3.076923 h -3.076923 z m 15.384615,0 h 3.076923 v 3.076923 h -3.076923 z m 3.076923,0 h 3.076923 v 3.076923 h -3.076923 z m 12.307692,0 h 3.076922 v 3.076923 h -3.076922 z m 9.230772,0 h 3.07692 v 3.076923 h -3.07692 z m 6.15384,0 h 3.07693 v 3.076923 h -3.07693 z M 3.076923,86.153846 h 3.076923 v 3.076923 H 3.076923 Z m 9.230769,0 h 3.076923 v 3.076923 h -3.076923 z m 3.076923,0 h 3.076923 v 3.076923 h -3.076923 z m 3.076923,0 h 3.076924 v 3.076923 h -3.076924 z m 6.153847,0 h 3.076923 v 3.076923 h -3.076923 z m 3.076923,0 h 3.076923 v 3.076923 h -3.076923 z m 3.076923,0 h 3.076923 v 3.076923 h -3.076923 z m 6.153846,0 H 40 v 3.076923 h -3.076923 z m 6.153846,0 h 3.076923 v 3.076923 h -3.076923 z m 3.076923,0 h 3.076923 v 3.076923 h -3.076923 z m 3.076923,0 h 3.076923 v 3.076923 h -3.076923 z m 9.230769,0 h 3.076924 v 3.076923 h -3.076924 z m 9.23077,0 h 3.076923 v 3.076923 h -3.076923 z m 3.076923,0 h 3.076923 v 3.076923 h -3.076923 z m 6.153846,0 H 80 v 3.076923 h -3.076923 z m 6.153846,0 h 3.076923 v 3.076923 h -3.076923 z m 3.076923,0 h 3.076923 v 3.076923 h -3.076923 z m 9.230769,0 h 3.076923 v 3.076923 h -3.076923 z m 15.384615,0 h 3.07692 v 3.076923 h -3.07692 z M 3.076923,89.230769 h 3.076923 v 3.076923 H 3.076923 Z m 9.230769,0 h 3.076923 v 3.076923 h -3.076923 z m 3.076923,0 h 3.076923 v 3.076923 h -3.076923 z m 6.153847,0 h 3.076923 v 3.076923 h -3.076923 z m 6.153846,0 h 3.076923 v 3.076923 h -3.076923 z m 3.076923,0 h 3.076923 v 3.076923 h -3.076923 z m 9.230769,0 h 3.076923 v 3.076923 H 40 Z m 6.153846,0 h 3.076923 v 3.076923 h -3.076923 z m 3.076923,0 h 3.076923 v 3.076923 h -3.076923 z m 18.461539,0 h 3.076923 v 3.076923 h -3.076923 z m 3.076923,0 h 3.076923 v 3.076923 h -3.076923 z m 9.230769,0 h 3.076923 v 3.076923 H 80 Z m 6.153846,0 h 3.076923 v 3.076923 h -3.076923 z m 3.076923,0 h 3.076923 v 3.076923 h -3.076923 z m 3.076923,0 h 3.076923 v 3.076923 h -3.076923 z m 3.076923,0 h 3.076923 v 3.076923 h -3.076923 z m 3.076923,0 h 3.076922 v 3.076923 h -3.076922 z m 3.076922,0 h 3.07693 v 3.076923 h -3.07693 z m 3.07693,0 h 3.07692 v 3.076923 h -3.07692 z m 3.07692,0 h 3.07692 v 3.076923 h -3.07692 z m 3.07692,0 h 3.07692 v 3.076923 h -3.07692 z m 3.07692,0 h 3.07693 v 3.076923 h -3.07693 z m -86.153842,3.076923 h 3.076923 v 3.076923 h -3.076923 z m 3.076923,0 h 3.076923 v 3.076923 h -3.076923 z m 3.076923,0 h 3.076923 v 3.076923 h -3.076923 z m 3.076923,0 H 40 v 3.076923 h -3.076923 z m 3.076923,0 h 3.076923 v 3.076923 H 40 Z m 3.076923,0 h 3.076923 v 3.076923 h -3.076923 z m 24.615385,0 h 3.076923 v 3.076923 h -3.076923 z m 6.153846,0 h 3.076923 v 3.076923 h -3.076923 z m 3.076923,0 H 80 v 3.076923 h -3.076923 z m 6.153846,0 h 3.076923 v 3.076923 h -3.076923 z m 3.076923,0 h 3.076923 v 3.076923 h -3.076923 z m 3.076923,0 h 3.076923 v 3.076923 h -3.076923 z m 12.307691,0 h 3.07692 v 3.076923 h -3.07692 z m 3.07692,0 h 3.07693 v 3.076923 h -3.07693 z m 3.07693,0 h 3.07692 v 3.076923 h -3.07692 z m 6.15384,0 h 3.07693 v 3.076923 h -3.07693 z M 3.076923,95.384615 h 3.076923 v 3.076923 H 3.076923 Z m 3.076923,0 h 3.076923 v 3.076923 H 6.153846 Z m 3.076923,0 h 3.076923 v 3.076923 H 9.230769 Z m 3.076923,0 h 3.076923 v 3.076923 h -3.076923 z m 3.076923,0 h 3.076923 v 3.076923 h -3.076923 z m 3.076923,0 h 3.076924 v 3.076923 h -3.076924 z m 3.076924,0 h 3.076923 v 3.076923 h -3.076923 z m 9.230769,0 h 3.076923 v 3.076923 h -3.076923 z m 3.076923,0 h 3.076923 v 3.076923 h -3.076923 z m 6.153846,0 h 3.076923 v 3.076923 H 40 Z m 3.076923,0 h 3.076923 v 3.076923 h -3.076923 z m 3.076923,0 h 3.076923 v 3.076923 h -3.076923 z m 6.153846,0 h 3.076923 v 3.076923 h -3.076923 z m 6.153846,0 h 3.076924 v 3.076923 h -3.076924 z m 6.153847,0 h 3.076923 v 3.076923 h -3.076923 z m 18.461538,0 h 3.076923 v 3.076923 h -3.076923 z m 6.153846,0 h 3.076923 v 3.076923 h -3.076923 z m 6.153846,0 h 3.076923 v 3.076923 h -3.076923 z m 6.153845,0 h 3.07692 v 3.076923 h -3.07692 z m 3.07692,0 h 3.07693 v 3.076923 h -3.07693 z m 6.15385,0 h 3.07692 v 3.076923 h -3.07692 z m 3.07692,0 h 3.07693 v 3.076923 h -3.07693 z M 3.076923,98.461538 h 3.076923 v 3.076922 H 3.076923 Z m 18.461539,0 h 3.076923 v 3.076922 h -3.076923 z m 12.307692,0 h 3.076923 v 3.076922 h -3.076923 z m 6.153846,0 h 3.076923 v 3.076922 H 40 Z m 3.076923,0 h 3.076923 v 3.076922 h -3.076923 z m 3.076923,0 h 3.076923 v 3.076922 h -3.076923 z m 3.076923,0 h 3.076923 v 3.076922 h -3.076923 z m 3.076923,0 h 3.076923 v 3.076922 h -3.076923 z m 9.23077,0 h 3.076923 v 3.076922 h -3.076923 z m 9.230769,0 h 3.076923 v 3.076922 h -3.076923 z m 6.153846,0 H 80 v 3.076922 h -3.076923 z m 12.307692,0 h 3.076923 v 3.076922 h -3.076923 z m 12.307691,0 h 3.07692 v 3.076922 h -3.07692 z m 3.07692,0 h 3.07693 v 3.076922 h -3.07693 z m 9.23077,0 h 3.07693 v 3.076922 h -3.07693 z M 3.076923,101.53846 h 3.076923 v 3.07693 H 3.076923 Z m 6.153846,0 h 3.076923 v 3.07693 H 9.230769 Z m 3.076923,0 h 3.076923 v 3.07693 h -3.076923 z m 3.076923,0 h 3.076923 v 3.07693 h -3.076923 z m 6.153847,0 h 3.076923 v 3.07693 h -3.076923 z m 6.153846,0 h 3.076923 v 3.07693 h -3.076923 z m 3.076923,0 h 3.076923 v 3.07693 h -3.076923 z m 3.076923,0 h 3.076923 v 3.07693 h -3.076923 z m 3.076923,0 H 40 v 3.07693 h -3.076923 z m 6.153846,0 h 3.076923 v 3.07693 h -3.076923 z m 3.076923,0 h 3.076923 v 3.07693 h -3.076923 z m 3.076923,0 h 3.076923 v 3.07693 h -3.076923 z m 3.076923,0 h 3.076923 v 3.07693 h -3.076923 z m 6.153846,0 h 3.076924 v 3.07693 h -3.076924 z m 3.076924,0 h 3.076923 v 3.07693 h -3.076923 z m 6.153846,0 h 3.076923 v 3.07693 h -3.076923 z m 3.076923,0 h 3.076923 v 3.07693 h -3.076923 z m 6.153846,0 H 80 v 3.07693 h -3.076923 z m 3.076923,0 h 3.076923 v 3.07693 H 80 Z m 6.153846,0 h 3.076923 v 3.07693 h -3.076923 z m 3.076923,0 h 3.076923 v 3.07693 h -3.076923 z m 3.076923,0 h 3.076923 v 3.07693 h -3.076923 z m 3.076923,0 h 3.076923 v 3.07693 h -3.076923 z m 3.076923,0 h 3.076922 v 3.07693 h -3.076922 z m 3.076922,0 h 3.07692 v 3.07693 h -3.07692 z m 6.15385,0 h 3.07692 v 3.07693 h -3.07692 z m 6.15384,0 h 3.07693 v 3.07693 h -3.07693 z M 3.076923,104.61539 h 3.076923 v 3.07692 H 3.076923 Z m 6.153846,0 h 3.076923 v 3.07692 H 9.230769 Z m 3.076923,0 h 3.076923 v 3.07692 h -3.076923 z m 3.076923,0 h 3.076923 v 3.07692 h -3.076923 z m 6.153847,0 h 3.076923 v 3.07692 h -3.076923 z m 6.153846,0 h 3.076923 v 3.07692 h -3.076923 z m 6.153846,0 h 3.076923 v 3.07692 h -3.076923 z m 6.153846,0 h 3.076923 v 3.07692 H 40 Z m 3.076923,0 h 3.076923 v 3.07692 h -3.076923 z m 3.076923,0 h 3.076923 v 3.07692 h -3.076923 z m 3.076923,0 h 3.076923 v 3.07692 h -3.076923 z m 3.076923,0 h 3.076923 v 3.07692 h -3.076923 z m 3.076923,0 h 3.076923 v 3.07692 h -3.076923 z m 9.23077,0 h 3.076923 v 3.07692 h -3.076923 z m 3.076923,0 h 3.076923 v 3.07692 h -3.076923 z m 3.076923,0 h 3.076923 v 3.07692 h -3.076923 z m 12.307692,0 h 3.076923 v 3.07692 h -3.076923 z m 6.153846,0 h 3.076923 v 3.07692 h -3.076923 z m 3.076923,0 h 3.076923 v 3.07692 h -3.076923 z m 3.076923,0 h 3.076923 v 3.07692 h -3.076923 z m 3.076923,0 h 3.076922 v 3.07692 h -3.076922 z m 3.076922,0 h 3.07692 v 3.07692 h -3.07692 z m 3.07692,0 h 3.07693 v 3.07692 h -3.07693 z M 3.076923,107.69231 h 3.076923 v 3.07692 H 3.076923 Z m 6.153846,0 h 3.076923 v 3.07692 H 9.230769 Z m 3.076923,0 h 3.076923 v 3.07692 h -3.076923 z m 3.076923,0 h 3.076923 v 3.07692 h -3.076923 z m 6.153847,0 h 3.076923 v 3.07692 h -3.076923 z m 6.153846,0 h 3.076923 v 3.07692 h -3.076923 z m 12.307692,0 h 3.076923 v 3.07692 H 40 Z m 3.076923,0 h 3.076923 v 3.07692 h -3.076923 z m 6.153846,0 h 3.076923 v 3.07692 h -3.076923 z m 12.307693,0 h 3.076923 v 3.07692 h -3.076923 z m 9.230769,0 h 3.076923 v 3.07692 h -3.076923 z m 3.076923,0 h 3.076923 v 3.07692 h -3.076923 z m 3.076923,0 H 80 v 3.07692 h -3.076923 z m 6.153846,0 h 3.076923 v 3.07692 h -3.076923 z m 3.076923,0 h 3.076923 v 3.07692 h -3.076923 z m 18.461534,0 h 3.07693 v 3.07692 h -3.07693 z m 3.07693,0 h 3.07692 v 3.07692 h -3.07692 z m 6.15384,0 h 3.07693 v 3.07692 h -3.07693 z M 3.076923,110.76923 h 3.076923 v 3.07692 H 3.076923 Z m 18.461539,0 h 3.076923 v 3.07692 h -3.076923 z m 15.384615,0 H 40 v 3.07692 h -3.076923 z m 9.230769,0 h 3.076923 v 3.07692 h -3.076923 z m 3.076923,0 h 3.076923 v 3.07692 h -3.076923 z m 12.307693,0 h 3.076923 v 3.07692 h -3.076923 z m 12.307692,0 h 3.076923 v 3.07692 h -3.076923 z m 9.230769,0 h 3.076923 v 3.07692 h -3.076923 z m 6.153846,0 h 3.076923 v 3.07692 h -3.076923 z m 12.307691,0 h 3.07692 v 3.07692 h -3.07692 z m 3.07692,0 h 3.07693 v 3.07692 h -3.07693 z m 9.23077,0 h 3.07693 v 3.07692 h -3.07693 z M 3.076923,113.84615 h 3.076923 v 3.07693 H 3.076923 Z m 3.076923,0 h 3.076923 v 3.07693 H 6.153846 Z m 3.076923,0 h 3.076923 v 3.07693 H 9.230769 Z m 3.076923,0 h 3.076923 v 3.07693 h -3.076923 z m 3.076923,0 h 3.076923 v 3.07693 h -3.076923 z m 3.076923,0 h 3.076924 v 3.07693 h -3.076924 z m 3.076924,0 h 3.076923 v 3.07693 h -3.076923 z m 12.307692,0 h 3.076923 v 3.07693 h -3.076923 z m 6.153846,0 h 3.076923 v 3.07693 H 40 Z m 3.076923,0 h 3.076923 v 3.07693 h -3.076923 z m 3.076923,0 h 3.076923 v 3.07693 h -3.076923 z m 15.384616,0 h 3.076923 v 3.07693 h -3.076923 z m 3.076923,0 h 3.076923 v 3.07693 h -3.076923 z m 3.076923,0 h 3.076923 v 3.07693 h -3.076923 z m 3.076923,0 h 3.076923 v 3.07693 h -3.076923 z m 3.076923,0 h 3.076923 v 3.07693 h -3.076923 z m 3.076923,0 H 80 v 3.07693 h -3.076923 z m 3.076923,0 h 3.076923 v 3.07693 H 80 Z m 3.076923,0 h 3.076923 v 3.07693 h -3.076923 z m 3.076923,0 h 3.076923 v 3.07693 h -3.076923 z m 6.153846,0 h 3.076923 v 3.07693 h -3.076923 z m 3.076923,0 h 3.076923 v 3.07693 h -3.076923 z m 12.307695,0 h 3.07692 v 3.07693 h -3.07692 z m 3.07692,0 h 3.07692 v 3.07693 h -3.07692 z m 3.07692,0 h 3.07693 v 3.07693 h -3.07693 z"
     id="path4"
     inkscape:connector-curvature="0"
     style="fill:#000000;stroke-width:3.07692313" />
</svg>
