<?xml version="1.0" encoding="UTF-8" standalone="no"?>
<svg
   xmlns:dc="http://purl.org/dc/elements/1.1/"
   xmlns:cc="http://creativecommons.org/ns#"
   xmlns:rdf="http://www.w3.org/1999/02/22-rdf-syntax-ns#"
   xmlns:svg="http://www.w3.org/2000/svg"
   xmlns="http://www.w3.org/2000/svg"
   xmlns:sodipodi="http://sodipodi.sourceforge.net/DTD/sodipodi-0.dtd"
   xmlns:inkscape="http://www.inkscape.org/namespaces/inkscape"
   id="qrcode-svg"
   style="stroke:none"
   viewBox="0 0 120 120"
   version="1.1"
   sodipodi:docname="xrp.svg"
   width="120"
   height="120"
   inkscape:version="0.92.3 (2405546, 2018-03-11)">
  <metadata
     id="metadata11">
    <rdf:RDF>
      <cc:Work
         rdf:about="">
        <dc:format>image/svg+xml</dc:format>
        <dc:type
           rdf:resource="http://purl.org/dc/dcmitype/StillImage" />
      </cc:Work>
    </rdf:RDF>
  </metadata>
  <defs
     id="defs9" />
  <sodipodi:namedview
     pagecolor="#ffffff"
     bordercolor="#666666"
     borderopacity="1"
     objecttolerance="10"
     gridtolerance="10"
     guidetolerance="10"
     inkscape:pageopacity="0"
     inkscape:pageshadow="2"
     inkscape:window-width="1261"
     inkscape:window-height="714"
     id="namedview7"
     showgrid="false"
     inkscape:zoom="6.7428571"
     inkscape:cx="60"
     inkscape:cy="60"
     inkscape:window-x="1777"
     inkscape:window-y="83"
     inkscape:window-maximized="0"
     inkscape:current-layer="qrcode-svg" />
  <rect
     width="342.85715%"
     height="342.85715%"
     id="rect2"
     x="0"
     y="0"
     style="fill:#ffffff;stroke-width:3.42857146" />
  <path
     d="M 3.428571,3.428571 H 6.857143 V 6.857143 H 3.428571 Z m 3.428572,0 h 3.428571 V 6.857143 H 6.857143 Z m 3.428571,0 h 3.428572 v 3.428572 h -3.428572 z m 3.428572,0 h 3.428571 v 3.428572 h -3.428571 z m 3.428571,0 h 3.428572 v 3.428572 h -3.428572 z m 3.428572,0 H 24 v 3.428572 h -3.428571 z m 3.428571,0 h 3.428571 V 6.857143 H 24 Z m 20.571429,0 H 48 v 3.428572 h -3.428571 z m 13.714285,0 h 3.428572 v 3.428572 h -3.428572 z m 3.428572,0 h 3.428571 v 3.428572 h -3.428571 z m 3.428571,0 h 3.428572 v 3.428572 h -3.428572 z m 3.428572,0 H 72 v 3.428572 h -3.428571 z m 3.428571,0 h 3.428571 V 6.857143 H 72 Z m 20.571429,0 H 96 v 3.428572 h -3.428571 z m 3.428571,0 h 3.428571 V 6.857143 H 96 Z m 3.428571,0 h 3.428569 v 3.428572 h -3.428569 z m 3.428569,0 h 3.42857 v 3.428572 h -3.42857 z m 3.42857,0 h 3.42858 v 3.428572 h -3.42858 z m 3.42858,0 h 3.42857 v 3.428572 h -3.42857 z m 3.42857,0 h 3.42857 v 3.428572 h -3.42857 z M 3.428571,6.857143 h 3.428572 v 3.428571 H 3.428571 Z m 20.571429,0 h 3.428571 v 3.428571 H 24 Z m 6.857143,0 h 3.428571 v 3.428571 h -3.428571 z m 6.857143,0 h 3.428571 v 3.428571 h -3.428571 z m 6.857143,0 H 48 v 3.428571 h -3.428571 z m 20.571428,0 h 3.428572 v 3.428571 h -3.428572 z m 3.428572,0 H 72 v 3.428571 h -3.428571 z m 3.428571,0 h 3.428571 v 3.428571 H 72 Z m 3.428571,0 h 3.428572 v 3.428571 h -3.428572 z m 3.428572,0 h 3.428571 v 3.428571 h -3.428571 z m 6.857143,0 h 3.428571 v 3.428571 h -3.428571 z m 6.857143,0 H 96 v 3.428571 h -3.428571 z m 20.571431,0 h 3.42857 v 3.428571 h -3.42857 z M 3.428571,10.285714 h 3.428572 v 3.428572 H 3.428571 Z m 6.857143,0 h 3.428572 v 3.428572 h -3.428572 z m 3.428572,0 h 3.428571 v 3.428572 h -3.428571 z m 3.428571,0 h 3.428572 v 3.428572 h -3.428572 z m 6.857143,0 h 3.428571 v 3.428572 H 24 Z m 6.857143,0 h 3.428571 v 3.428572 h -3.428571 z m 10.285714,0 h 3.428572 v 3.428572 h -3.428572 z m 3.428572,0 H 48 v 3.428572 h -3.428571 z m 6.857142,0 h 3.428572 v 3.428572 h -3.428572 z m 6.857143,0 h 3.428572 v 3.428572 h -3.428572 z m 3.428572,0 h 3.428571 v 3.428572 h -3.428571 z m 13.714285,0 h 3.428572 v 3.428572 h -3.428572 z m 3.428572,0 h 3.428571 v 3.428572 h -3.428571 z m 6.857143,0 h 3.428571 v 3.428572 h -3.428571 z m 6.857143,0 H 96 v 3.428572 h -3.428571 z m 6.857142,0 h 3.428569 v 3.428572 h -3.428569 z m 3.428569,0 h 3.42857 v 3.428572 h -3.42857 z m 3.42857,0 h 3.42858 v 3.428572 h -3.42858 z m 6.85715,0 h 3.42857 v 3.428572 h -3.42857 z M 3.428571,13.714286 h 3.428572 v 3.428571 H 3.428571 Z m 6.857143,0 h 3.428572 v 3.428571 h -3.428572 z m 3.428572,0 h 3.428571 v 3.428571 h -3.428571 z m 3.428571,0 h 3.428572 v 3.428571 h -3.428572 z m 6.857143,0 h 3.428571 v 3.428571 H 24 Z m 6.857143,0 h 3.428571 v 3.428571 h -3.428571 z m 3.428571,0 h 3.428572 v 3.428571 h -3.428572 z m 6.857143,0 h 3.428572 v 3.428571 h -3.428572 z m 6.857143,0 h 3.428571 v 3.428571 H 48 Z m 6.857143,0 h 3.428571 v 3.428571 h -3.428571 z m 6.857143,0 h 3.428571 v 3.428571 h -3.428571 z m 6.857143,0 H 72 v 3.428571 h -3.428571 z m 3.428571,0 h 3.428571 v 3.428571 H 72 Z m 3.428571,0 h 3.428572 v 3.428571 h -3.428572 z m 3.428572,0 h 3.428571 v 3.428571 h -3.428571 z m 3.428571,0 h 3.428572 v 3.428571 h -3.428572 z m 10.285715,0 H 96 v 3.428571 h -3.428571 z m 6.857142,0 h 3.428569 v 3.428571 h -3.428569 z m 3.428569,0 h 3.42857 v 3.428571 h -3.42857 z m 3.42857,0 h 3.42858 v 3.428571 h -3.42858 z m 6.85715,0 h 3.42857 v 3.428571 h -3.42857 z M 3.428571,17.142857 h 3.428572 v 3.428572 H 3.428571 Z m 6.857143,0 h 3.428572 v 3.428572 h -3.428572 z m 3.428572,0 h 3.428571 v 3.428572 h -3.428571 z m 3.428571,0 h 3.428572 v 3.428572 h -3.428572 z m 6.857143,0 h 3.428571 v 3.428572 H 24 Z m 6.857143,0 h 3.428571 v 3.428572 h -3.428571 z m 3.428571,0 h 3.428572 v 3.428572 h -3.428572 z m 3.428572,0 h 3.428571 v 3.428572 h -3.428571 z m 3.428571,0 h 3.428572 v 3.428572 h -3.428572 z m 3.428572,0 H 48 v 3.428572 h -3.428571 z m 3.428571,0 h 3.428571 v 3.428572 H 48 Z m 6.857143,0 h 3.428571 v 3.428572 h -3.428571 z m 13.714286,0 H 72 v 3.428572 h -3.428571 z m 10.285714,0 h 3.428571 v 3.428572 h -3.428571 z m 3.428571,0 h 3.428572 v 3.428572 h -3.428572 z m 10.285715,0 H 96 v 3.428572 h -3.428571 z m 6.857142,0 h 3.428569 v 3.428572 h -3.428569 z m 3.428569,0 h 3.42857 v 3.428572 h -3.42857 z m 3.42857,0 h 3.42858 v 3.428572 h -3.42858 z m 6.85715,0 h 3.42857 v 3.428572 h -3.42857 z M 3.428571,20.571429 H 6.857143 V 24 H 3.428571 Z m 20.571429,0 h 3.428571 V 24 H 24 Z m 6.857143,0 h 3.428571 V 24 h -3.428571 z m 6.857143,0 h 3.428571 V 24 h -3.428571 z m 13.714285,0 h 3.428572 V 24 h -3.428572 z m 3.428572,0 h 3.428571 V 24 h -3.428571 z m 6.857143,0 h 3.428571 V 24 h -3.428571 z m 6.857143,0 H 72 V 24 h -3.428571 z m 17.142857,0 h 3.428571 V 24 h -3.428571 z m 6.857143,0 H 96 V 24 h -3.428571 z m 20.571431,0 h 3.42857 V 24 h -3.42857 z M 3.428571,24 h 3.428572 v 3.428571 H 3.428571 Z m 3.428572,0 h 3.428571 v 3.428571 H 6.857143 Z m 3.428571,0 h 3.428572 v 3.428571 h -3.428572 z m 3.428572,0 h 3.428571 v 3.428571 h -3.428571 z m 3.428571,0 h 3.428572 v 3.428571 h -3.428572 z m 3.428572,0 H 24 v 3.428571 H 20.571429 Z M 24,24 h 3.428571 v 3.428571 H 24 Z m 6.857143,0 h 3.428571 v 3.428571 h -3.428571 z m 6.857143,0 h 3.428571 v 3.428571 h -3.428571 z m 6.857143,0 H 48 v 3.428571 h -3.428571 z m 6.857142,0 h 3.428572 v 3.428571 h -3.428572 z m 6.857143,0 h 3.428572 v 3.428571 h -3.428572 z m 6.857143,0 h 3.428572 v 3.428571 H 65.142857 Z M 72,24 h 3.428571 v 3.428571 H 72 Z m 6.857143,0 h 3.428571 v 3.428571 h -3.428571 z m 6.857143,0 h 3.428571 v 3.428571 h -3.428571 z m 6.857143,0 H 96 v 3.428571 H 92.571429 Z M 96,24 h 3.428571 v 3.428571 H 96 Z m 3.428571,0 h 3.428569 v 3.428571 h -3.428569 z m 3.428569,0 h 3.42857 v 3.428571 h -3.42857 z m 3.42857,0 h 3.42858 v 3.428571 h -3.42858 z m 3.42858,0 h 3.42857 v 3.428571 h -3.42857 z m 3.42857,0 h 3.42857 v 3.428571 h -3.42857 z m -78.857146,3.428571 h 3.428572 v 3.428572 h -3.428572 z m 6.857143,0 h 3.428572 v 3.428572 h -3.428572 z m 6.857143,0 h 3.428571 v 3.428572 H 48 Z m 3.428571,0 h 3.428572 v 3.428572 h -3.428572 z m 3.428572,0 h 3.428571 v 3.428572 h -3.428571 z m 6.857143,0 h 3.428571 v 3.428572 h -3.428571 z m 10.285714,0 h 3.428571 v 3.428572 H 72 Z m 13.714286,0 h 3.428571 v 3.428572 h -3.428571 z m -75.428572,3.428572 h 3.428572 v 3.428571 h -3.428572 z m 10.285715,0 H 24 v 3.428571 h -3.428571 z m 3.428571,0 h 3.428571 v 3.428571 H 24 Z m 3.428571,0 h 3.428572 v 3.428571 h -3.428572 z m 3.428572,0 h 3.428571 v 3.428571 h -3.428571 z m 3.428571,0 h 3.428572 v 3.428571 h -3.428572 z m 6.857143,0 h 3.428572 v 3.428571 h -3.428572 z m 3.428572,0 H 48 v 3.428571 h -3.428571 z m 17.142857,0 h 3.428571 v 3.428571 h -3.428571 z m 3.428571,0 h 3.428572 v 3.428571 h -3.428572 z m 10.285714,0 h 3.428572 v 3.428571 h -3.428572 z m 6.857143,0 h 3.428572 v 3.428571 h -3.428572 z m 6.857143,0 h 3.428572 v 3.428571 h -3.428572 z m 6.857143,0 h 3.428571 v 3.428571 H 96 Z m 3.428571,0 h 3.428569 v 3.428571 h -3.428569 z m 3.428569,0 h 3.42857 v 3.428571 h -3.42857 z m 3.42857,0 h 3.42858 v 3.428571 h -3.42858 z m 3.42858,0 h 3.42857 v 3.428571 h -3.42857 z M 3.428571,34.285714 h 3.428572 v 3.428572 H 3.428571 Z m 10.285715,0 h 3.428571 v 3.428572 h -3.428571 z m 3.428571,0 h 3.428572 v 3.428572 h -3.428572 z m 10.285714,0 h 3.428572 v 3.428572 h -3.428572 z m 10.285715,0 h 3.428571 v 3.428572 h -3.428571 z m 6.857143,0 H 48 v 3.428572 h -3.428571 z m 20.571428,0 h 3.428572 v 3.428572 h -3.428572 z m 3.428572,0 H 72 v 3.428572 h -3.428571 z m 17.142857,0 h 3.428571 v 3.428572 h -3.428571 z m 10.285714,0 h 3.428571 v 3.428572 H 96 Z m 6.85714,0 h 3.42857 v 3.428572 h -3.42857 z m 6.85715,0 h 3.42857 v 3.428572 h -3.42857 z M 3.428571,37.714286 h 3.428572 v 3.428571 H 3.428571 Z m 3.428572,0 h 3.428571 v 3.428571 H 6.857143 Z m 3.428571,0 h 3.428572 v 3.428571 h -3.428572 z m 3.428572,0 h 3.428571 v 3.428571 h -3.428571 z m 6.857143,0 H 24 v 3.428571 h -3.428571 z m 3.428571,0 h 3.428571 v 3.428571 H 24 Z m 3.428571,0 h 3.428572 v 3.428571 h -3.428572 z m 3.428572,0 h 3.428571 v 3.428571 h -3.428571 z m 3.428571,0 h 3.428572 v 3.428571 h -3.428572 z m 3.428572,0 h 3.428571 v 3.428571 h -3.428571 z m 3.428571,0 h 3.428572 v 3.428571 h -3.428572 z m 10.285714,0 h 3.428572 v 3.428571 h -3.428572 z m 10.285715,0 h 3.428571 v 3.428571 h -3.428571 z m 6.857143,0 H 72 v 3.428571 h -3.428571 z m 3.428571,0 h 3.428571 v 3.428571 H 72 Z m 3.428571,0 h 3.428572 v 3.428571 h -3.428572 z m 3.428572,0 h 3.428571 v 3.428571 h -3.428571 z m 3.428571,0 h 3.428572 v 3.428571 h -3.428572 z m 3.428572,0 h 3.428571 v 3.428571 h -3.428571 z m 13.714285,0 h 3.428569 v 3.428571 h -3.428569 z m 3.428569,0 h 3.42857 v 3.428571 h -3.42857 z m 3.42857,0 h 3.42858 v 3.428571 h -3.42858 z m 6.85715,0 h 3.42857 v 3.428571 h -3.42857 z M 3.428571,41.142857 h 3.428572 v 3.428572 H 3.428571 Z m 3.428572,0 h 3.428571 v 3.428572 H 6.857143 Z m 13.714286,0 H 24 v 3.428572 h -3.428571 z m 17.142857,0 h 3.428571 v 3.428572 h -3.428571 z m 13.714285,0 h 3.428572 v 3.428572 h -3.428572 z m 3.428572,0 h 3.428571 v 3.428572 h -3.428571 z m 3.428571,0 h 3.428572 v 3.428572 h -3.428572 z m 6.857143,0 h 3.428572 v 3.428572 h -3.428572 z m 13.714286,0 h 3.428571 v 3.428572 h -3.428571 z m 3.428571,0 h 3.428572 v 3.428572 h -3.428572 z m 6.857143,0 h 3.428572 v 3.428572 h -3.428572 z m 3.428572,0 H 96 v 3.428572 h -3.428571 z m 10.285711,0 h 3.42857 v 3.428572 h -3.42857 z M 6.857143,44.571429 h 3.428571 V 48 H 6.857143 Z m 3.428571,0 h 3.428572 V 48 h -3.428572 z m 10.285715,0 H 24 V 48 h -3.428571 z m 3.428571,0 h 3.428571 V 48 H 24 Z m 20.571429,0 H 48 V 48 h -3.428571 z m 3.428571,0 h 3.428571 V 48 H 48 Z m 3.428571,0 h 3.428572 V 48 h -3.428572 z m 3.428572,0 h 3.428571 V 48 h -3.428571 z m 6.857143,0 h 3.428571 V 48 h -3.428571 z m 3.428571,0 h 3.428572 V 48 h -3.428572 z m 3.428572,0 H 72 V 48 h -3.428571 z m 10.285714,0 h 3.428571 V 48 h -3.428571 z m 6.857143,0 h 3.428571 V 48 h -3.428571 z m 6.857143,0 H 96 V 48 h -3.428571 z m 3.428571,0 h 3.428571 V 48 H 96 Z m 3.428571,0 h 3.428569 V 48 h -3.428569 z m 3.428569,0 h 3.42857 V 48 h -3.42857 z m 6.85715,0 h 3.42857 V 48 h -3.42857 z M 3.428571,48 h 3.428572 v 3.428571 H 3.428571 Z m 6.857143,0 h 3.428572 v 3.428571 h -3.428572 z m 3.428572,0 h 3.428571 v 3.428571 h -3.428571 z m 6.857143,0 H 24 v 3.428571 h -3.428571 z m 10.285714,0 h 3.428571 v 3.428571 h -3.428571 z m 13.714286,0 H 48 v 3.428571 H 44.571429 Z M 48,48 h 3.428571 v 3.428571 H 48 Z m 3.428571,0 h 3.428572 v 3.428571 h -3.428572 z m 3.428572,0 h 3.428571 v 3.428571 h -3.428571 z m 3.428571,0 h 3.428572 v 3.428571 h -3.428572 z m 10.285715,0 H 72 v 3.428571 H 68.571429 Z M 72,48 h 3.428571 v 3.428571 H 72 Z m 6.857143,0 h 3.428571 v 3.428571 h -3.428571 z m 3.428571,0 h 3.428572 v 3.428571 h -3.428572 z m 3.428572,0 h 3.428571 v 3.428571 h -3.428571 z m 3.428571,0 h 3.428572 v 3.428571 H 89.142857 Z M 96,48 h 3.428571 v 3.428571 H 96 Z m 10.28571,0 h 3.42858 v 3.428571 h -3.42858 z m 3.42858,0 h 3.42857 v 3.428571 h -3.42857 z m 3.42857,0 h 3.42857 v 3.428571 h -3.42857 z M 3.428571,51.428571 h 3.428572 v 3.428572 H 3.428571 Z m 6.857143,0 h 3.428572 v 3.428572 h -3.428572 z m 3.428572,0 h 3.428571 v 3.428572 h -3.428571 z m 3.428571,0 h 3.428572 v 3.428572 h -3.428572 z m 6.857143,0 h 3.428571 v 3.428572 H 24 Z m 3.428571,0 h 3.428572 v 3.428572 h -3.428572 z m 3.428572,0 h 3.428571 v 3.428572 h -3.428571 z m 6.857143,0 h 3.428571 v 3.428572 h -3.428571 z m 6.857143,0 H 48 v 3.428572 h -3.428571 z m 3.428571,0 h 3.428571 v 3.428572 H 48 Z m 3.428571,0 h 3.428572 v 3.428572 h -3.428572 z m 3.428572,0 h 3.428571 v 3.428572 h -3.428571 z m 3.428571,0 h 3.428572 v 3.428572 h -3.428572 z m 3.428572,0 h 3.428571 v 3.428572 h -3.428571 z m 3.428571,0 h 3.428572 v 3.428572 h -3.428572 z m 10.285714,0 h 3.428572 v 3.428572 h -3.428572 z m 6.857143,0 h 3.428572 v 3.428572 h -3.428572 z m 6.857143,0 h 3.428572 v 3.428572 h -3.428572 z m 6.857143,0 h 3.428571 v 3.428572 H 96 Z m 3.428571,0 h 3.428569 v 3.428572 h -3.428569 z m 3.428569,0 h 3.42857 v 3.428572 h -3.42857 z m 10.28572,0 h 3.42857 v 3.428572 h -3.42857 z M 6.857143,54.857143 h 3.428571 v 3.428571 H 6.857143 Z m 6.857143,0 h 3.428571 v 3.428571 h -3.428571 z m 3.428571,0 h 3.428572 v 3.428571 h -3.428572 z m 3.428572,0 H 24 v 3.428571 h -3.428571 z m 20.571428,0 h 3.428572 v 3.428571 h -3.428572 z m 3.428572,0 H 48 v 3.428571 h -3.428571 z m 3.428571,0 h 3.428571 v 3.428571 H 48 Z m 6.857143,0 h 3.428571 v 3.428571 h -3.428571 z m 6.857143,0 h 3.428571 v 3.428571 h -3.428571 z m 17.142857,0 h 3.428571 v 3.428571 h -3.428571 z m 3.428571,0 h 3.428572 v 3.428571 h -3.428572 z m 3.428572,0 h 3.428571 v 3.428571 h -3.428571 z m 3.428571,0 h 3.428572 v 3.428571 h -3.428572 z m 3.428572,0 H 96 v 3.428571 h -3.428571 z m 6.857142,0 h 3.428569 v 3.428571 h -3.428569 z m 3.428569,0 h 3.42857 v 3.428571 h -3.42857 z m 10.28572,0 h 3.42857 v 3.428571 h -3.42857 z M 3.428571,58.285714 h 3.428572 v 3.428572 H 3.428571 Z m 3.428572,0 h 3.428571 v 3.428572 H 6.857143 Z m 3.428571,0 h 3.428572 v 3.428572 h -3.428572 z m 13.714286,0 h 3.428571 v 3.428572 H 24 Z m 3.428571,0 h 3.428572 v 3.428572 h -3.428572 z m 13.714286,0 h 3.428572 v 3.428572 h -3.428572 z m 3.428572,0 H 48 v 3.428572 h -3.428571 z m 20.571428,0 h 3.428572 v 3.428572 h -3.428572 z m 17.142857,0 h 3.428572 v 3.428572 h -3.428572 z m 3.428572,0 h 3.428571 v 3.428572 h -3.428571 z m 6.857143,0 H 96 v 3.428572 h -3.428571 z m 3.428571,0 h 3.428571 v 3.428572 H 96 Z m 3.428571,0 h 3.428569 v 3.428572 h -3.428569 z m 10.285719,0 h 3.42857 v 3.428572 h -3.42857 z m 3.42857,0 h 3.42857 v 3.428572 h -3.42857 z M 10.285714,61.714286 h 3.428572 v 3.428571 h -3.428572 z m 3.428572,0 h 3.428571 v 3.428571 h -3.428571 z m 13.714285,0 h 3.428572 v 3.428571 h -3.428572 z m 3.428572,0 h 3.428571 v 3.428571 h -3.428571 z m 3.428571,0 h 3.428572 v 3.428571 h -3.428572 z m 6.857143,0 h 3.428572 v 3.428571 h -3.428572 z m 3.428572,0 H 48 v 3.428571 h -3.428571 z m 3.428571,0 h 3.428571 v 3.428571 H 48 Z m 10.285714,0 h 3.428572 v 3.428571 h -3.428572 z m 6.857143,0 h 3.428572 v 3.428571 h -3.428572 z m 6.857143,0 h 3.428571 v 3.428571 H 72 Z m 3.428571,0 h 3.428572 v 3.428571 h -3.428572 z m 3.428572,0 h 3.428571 v 3.428571 h -3.428571 z m 3.428571,0 h 3.428572 v 3.428571 h -3.428572 z m 3.428572,0 h 3.428571 v 3.428571 h -3.428571 z m 6.857143,0 H 96 v 3.428571 h -3.428571 z m 3.428571,0 h 3.428571 v 3.428571 H 96 Z m 13.71429,0 h 3.42857 v 3.428571 h -3.42857 z m 3.42857,0 h 3.42857 v 3.428571 h -3.42857 z M 3.428571,65.142857 h 3.428572 v 3.428572 H 3.428571 Z m 17.142858,0 H 24 v 3.428572 h -3.428571 z m 3.428571,0 h 3.428571 v 3.428572 H 24 Z m 3.428571,0 h 3.428572 v 3.428572 h -3.428572 z m 3.428572,0 h 3.428571 v 3.428572 h -3.428571 z m 3.428571,0 h 3.428572 v 3.428572 h -3.428572 z m 17.142857,0 h 3.428572 v 3.428572 h -3.428572 z m 3.428572,0 h 3.428571 v 3.428572 h -3.428571 z m 10.285714,0 h 3.428572 v 3.428572 h -3.428572 z m 3.428572,0 H 72 v 3.428572 h -3.428571 z m 3.428571,0 h 3.428571 v 3.428572 H 72 Z m 10.285714,0 h 3.428572 v 3.428572 h -3.428572 z m 6.857143,0 h 3.428572 v 3.428572 h -3.428572 z m 3.428572,0 H 96 v 3.428572 h -3.428571 z m 10.285711,0 h 3.42857 v 3.428572 h -3.42857 z m 10.28572,0 h 3.42857 v 3.428572 h -3.42857 z M 6.857143,68.571429 h 3.428571 V 72 H 6.857143 Z m 6.857143,0 h 3.428571 V 72 h -3.428571 z m 3.428571,0 h 3.428572 V 72 h -3.428572 z m 3.428572,0 H 24 V 72 h -3.428571 z m 6.857142,0 h 3.428572 V 72 h -3.428572 z m 3.428572,0 h 3.428571 V 72 h -3.428571 z m 6.857143,0 h 3.428571 V 72 h -3.428571 z m 3.428571,0 h 3.428572 V 72 h -3.428572 z m 3.428572,0 H 48 V 72 h -3.428571 z m 17.142857,0 h 3.428571 V 72 h -3.428571 z m 3.428571,0 h 3.428572 V 72 h -3.428572 z m 27.428572,0 H 96 V 72 h -3.428571 z m 10.285711,0 h 3.42857 V 72 h -3.42857 z m 6.85715,0 h 3.42857 V 72 h -3.42857 z M 6.857143,72 h 3.428571 v 3.428571 H 6.857143 Z m 3.428571,0 h 3.428572 v 3.428571 h -3.428572 z m 3.428572,0 h 3.428571 v 3.428571 h -3.428571 z m 6.857143,0 H 24 v 3.428571 H 20.571429 Z M 24,72 h 3.428571 v 3.428571 H 24 Z m 3.428571,0 h 3.428572 v 3.428571 h -3.428572 z m 3.428572,0 h 3.428571 v 3.428571 h -3.428571 z m 3.428571,0 h 3.428572 v 3.428571 h -3.428572 z m 3.428572,0 h 3.428571 v 3.428571 H 37.714286 Z M 48,72 h 3.428571 v 3.428571 H 48 Z m 6.857143,0 h 3.428571 v 3.428571 h -3.428571 z m 3.428571,0 h 3.428572 v 3.428571 H 58.285714 Z M 72,72 h 3.428571 v 3.428571 H 72 Z m 10.285714,0 h 3.428572 v 3.428571 h -3.428572 z m 10.285715,0 H 96 v 3.428571 H 92.571429 Z M 96,72 h 3.428571 v 3.428571 H 96 Z m 6.85714,0 h 3.42857 v 3.428571 h -3.42857 z m 3.42857,0 h 3.42858 v 3.428571 h -3.42858 z m 6.85715,0 h 3.42857 v 3.428571 h -3.42857 z M 10.285714,75.428571 h 3.428572 v 3.428572 h -3.428572 z m 6.857143,0 h 3.428572 v 3.428572 h -3.428572 z m 10.285714,0 h 3.428572 v 3.428572 h -3.428572 z m 6.857143,0 h 3.428572 v 3.428572 h -3.428572 z m 13.714286,0 h 3.428571 v 3.428572 H 48 Z m 6.857143,0 h 3.428571 v 3.428572 h -3.428571 z m 3.428571,0 h 3.428572 v 3.428572 h -3.428572 z m 10.285715,0 H 72 v 3.428572 h -3.428571 z m 6.857142,0 h 3.428572 v 3.428572 h -3.428572 z m 3.428572,0 h 3.428571 v 3.428572 h -3.428571 z m 6.857143,0 h 3.428571 v 3.428572 h -3.428571 z m 3.428571,0 h 3.428572 v 3.428572 h -3.428572 z m 3.428572,0 H 96 v 3.428572 h -3.428571 z m 3.428571,0 h 3.428571 v 3.428572 H 96 Z m 6.85714,0 h 3.42857 v 3.428572 h -3.42857 z m 10.28572,0 h 3.42857 v 3.428572 h -3.42857 z M 3.428571,78.857143 h 3.428572 v 3.428571 H 3.428571 Z m 3.428572,0 h 3.428571 v 3.428571 H 6.857143 Z m 6.857143,0 h 3.428571 v 3.428571 h -3.428571 z m 3.428571,0 h 3.428572 v 3.428571 h -3.428572 z m 3.428572,0 H 24 v 3.428571 h -3.428571 z m 3.428571,0 h 3.428571 v 3.428571 H 24 Z m 3.428571,0 h 3.428572 v 3.428571 h -3.428572 z m 10.285715,0 h 3.428571 v 3.428571 h -3.428571 z m 17.142857,0 h 3.428571 v 3.428571 h -3.428571 z m 10.285714,0 h 3.428572 v 3.428571 h -3.428572 z m 3.428572,0 H 72 v 3.428571 h -3.428571 z m 3.428571,0 h 3.428571 v 3.428571 H 72 Z m 10.285714,0 h 3.428572 v 3.428571 h -3.428572 z m 10.285715,0 H 96 v 3.428571 h -3.428571 z m 10.285711,0 h 3.42857 v 3.428571 h -3.42857 z m 3.42857,0 h 3.42858 v 3.428571 h -3.42858 z m 6.85715,0 h 3.42857 v 3.428571 h -3.42857 z M 10.285714,82.285714 h 3.428572 v 3.428572 h -3.428572 z m 6.857143,0 h 3.428572 v 3.428572 h -3.428572 z m 10.285714,0 h 3.428572 v 3.428572 h -3.428572 z m 6.857143,0 h 3.428572 v 3.428572 h -3.428572 z m 13.714286,0 h 3.428571 v 3.428572 H 48 Z m 6.857143,0 h 3.428571 v 3.428572 h -3.428571 z m 13.714286,0 H 72 v 3.428572 h -3.428571 z m 3.428571,0 h 3.428571 v 3.428572 H 72 Z m 10.285714,0 h 3.428572 v 3.428572 h -3.428572 z m 3.428572,0 h 3.428571 v 3.428572 h -3.428571 z m 3.428571,0 h 3.428572 v 3.428572 h -3.428572 z m 6.857143,0 h 3.428571 v 3.428572 H 96 Z m 13.71429,0 h 3.42857 v 3.428572 h -3.42857 z M 3.428571,85.714286 h 3.428572 v 3.428571 H 3.428571 Z m 3.428572,0 h 3.428571 v 3.428571 H 6.857143 Z m 3.428571,0 h 3.428572 v 3.428571 h -3.428572 z m 3.428572,0 h 3.428571 v 3.428571 h -3.428571 z m 3.428571,0 h 3.428572 v 3.428571 h -3.428572 z m 6.857143,0 h 3.428571 v 3.428571 H 24 Z m 13.714286,0 h 3.428571 v 3.428571 h -3.428571 z m 3.428571,0 h 3.428572 v 3.428571 h -3.428572 z m 6.857143,0 h 3.428571 v 3.428571 H 48 Z m 3.428571,0 h 3.428572 v 3.428571 h -3.428572 z m 3.428572,0 h 3.428571 v 3.428571 h -3.428571 z m 6.857143,0 h 3.428571 v 3.428571 h -3.428571 z m 6.857143,0 H 72 v 3.428571 h -3.428571 z m 10.285714,0 h 3.428571 v 3.428571 h -3.428571 z m 3.428571,0 h 3.428572 v 3.428571 h -3.428572 z m 3.428572,0 h 3.428571 v 3.428571 h -3.428571 z m 3.428571,0 h 3.428572 v 3.428571 h -3.428572 z m 3.428572,0 H 96 v 3.428571 h -3.428571 z m 3.428571,0 h 3.428571 v 3.428571 H 96 Z m 3.428571,0 h 3.428569 v 3.428571 h -3.428569 z m 10.285719,0 h 3.42857 v 3.428571 h -3.42857 z m 3.42857,0 h 3.42857 v 3.428571 h -3.42857 z m -82.285717,3.428571 h 3.428571 v 3.428572 h -3.428571 z m 24,0 h 3.428571 v 3.428572 h -3.428571 z m 3.428571,0 h 3.428572 v 3.428572 h -3.428572 z m 3.428572,0 h 3.428571 v 3.428572 h -3.428571 z m 3.428571,0 h 3.428572 v 3.428572 h -3.428572 z m 10.285714,0 h 3.428572 v 3.428572 h -3.428572 z m 3.428572,0 h 3.428571 v 3.428572 h -3.428571 z m 3.428571,0 h 3.428572 v 3.428572 h -3.428572 z m 3.428572,0 h 3.428571 v 3.428572 h -3.428571 z m 13.714285,0 h 3.428569 v 3.428572 h -3.428569 z m 3.428569,0 h 3.42857 v 3.428572 h -3.42857 z m 3.42857,0 h 3.42858 v 3.428572 h -3.42858 z m 3.42858,0 h 3.42857 v 3.428572 h -3.42857 z M 3.428571,92.571429 H 6.857143 V 96 H 3.428571 Z m 3.428572,0 h 3.428571 V 96 H 6.857143 Z m 3.428571,0 h 3.428572 V 96 h -3.428572 z m 3.428572,0 h 3.428571 V 96 h -3.428571 z m 3.428571,0 h 3.428572 V 96 h -3.428572 z m 3.428572,0 H 24 V 96 h -3.428571 z m 3.428571,0 h 3.428571 V 96 H 24 Z m 6.857143,0 h 3.428571 V 96 h -3.428571 z m 6.857143,0 h 3.428571 V 96 h -3.428571 z m 3.428571,0 h 3.428572 V 96 h -3.428572 z m 13.714286,0 h 3.428571 V 96 h -3.428571 z m 13.714286,0 H 72 V 96 h -3.428571 z m 6.857142,0 h 3.428572 V 96 h -3.428572 z m 3.428572,0 h 3.428571 V 96 h -3.428571 z m 3.428571,0 h 3.428572 V 96 h -3.428572 z m 3.428572,0 h 3.428571 V 96 h -3.428571 z m 6.857143,0 H 96 V 96 h -3.428571 z m 6.857142,0 h 3.428569 V 96 h -3.428569 z m 3.428569,0 h 3.42857 V 96 h -3.42857 z m 10.28572,0 h 3.42857 V 96 h -3.42857 z M 3.428571,96 h 3.428572 v 3.428571 H 3.428571 Z M 24,96 h 3.428571 v 3.428571 H 24 Z m 6.857143,0 h 3.428571 v 3.428571 h -3.428571 z m 3.428571,0 h 3.428572 v 3.428571 h -3.428572 z m 3.428572,0 h 3.428571 v 3.428571 h -3.428571 z m 3.428571,0 h 3.428572 v 3.428571 h -3.428572 z m 3.428572,0 H 48 v 3.428571 h -3.428571 z m 6.857142,0 h 3.428572 v 3.428571 h -3.428572 z m 3.428572,0 h 3.428571 v 3.428571 h -3.428571 z m 3.428571,0 h 3.428572 v 3.428571 h -3.428572 z m 3.428572,0 h 3.428571 v 3.428571 H 61.714286 Z M 72,96 h 3.428571 v 3.428571 H 72 Z m 6.857143,0 h 3.428571 v 3.428571 h -3.428571 z m 3.428571,0 h 3.428572 v 3.428571 h -3.428572 z m 3.428572,0 h 3.428571 v 3.428571 h -3.428571 z m 13.714285,0 h 3.428569 v 3.428571 h -3.428569 z m 3.428569,0 h 3.42857 v 3.428571 h -3.42857 z M 3.428571,99.428571 h 3.428572 v 3.428569 H 3.428571 Z m 6.857143,0 h 3.428572 v 3.428569 h -3.428572 z m 3.428572,0 h 3.428571 v 3.428569 h -3.428571 z m 3.428571,0 h 3.428572 v 3.428569 h -3.428572 z m 6.857143,0 h 3.428571 v 3.428569 H 24 Z m 10.285714,0 h 3.428572 v 3.428569 h -3.428572 z m 3.428572,0 h 3.428571 v 3.428569 h -3.428571 z m 10.285714,0 h 3.428571 v 3.428569 H 48 Z m 6.857143,0 h 3.428571 v 3.428569 h -3.428571 z m 3.428571,0 h 3.428572 v 3.428569 h -3.428572 z m 3.428572,0 h 3.428571 v 3.428569 h -3.428571 z m 3.428571,0 h 3.428572 v 3.428569 h -3.428572 z m 10.285714,0 h 3.428572 v 3.428569 h -3.428572 z m 3.428572,0 h 3.428571 v 3.428569 h -3.428571 z m 3.428571,0 h 3.428572 v 3.428569 h -3.428572 z m 3.428572,0 h 3.428571 v 3.428569 h -3.428571 z m 3.428571,0 h 3.428572 v 3.428569 h -3.428572 z m 3.428572,0 H 96 v 3.428569 h -3.428571 z m 3.428571,0 h 3.428571 v 3.428569 H 96 Z m 3.428571,0 h 3.428569 v 3.428569 h -3.428569 z m 13.714289,0 h 3.42857 v 3.428569 h -3.42857 z M 3.428571,102.85714 h 3.428572 v 3.42857 H 3.428571 Z m 6.857143,0 h 3.428572 v 3.42857 h -3.428572 z m 3.428572,0 h 3.428571 v 3.42857 h -3.428571 z m 3.428571,0 h 3.428572 v 3.42857 h -3.428572 z m 6.857143,0 h 3.428571 v 3.42857 H 24 Z m 13.714286,0 h 3.428571 v 3.42857 h -3.428571 z m 10.285714,0 h 3.428571 v 3.42857 H 48 Z m 10.285714,0 h 3.428572 v 3.42857 h -3.428572 z m 6.857143,0 h 3.428572 v 3.42857 h -3.428572 z m 3.428572,0 H 72 v 3.42857 h -3.428571 z m 17.142857,0 h 3.428571 v 3.42857 h -3.428571 z m 3.428571,0 h 3.428572 v 3.42857 h -3.428572 z m 10.285714,0 h 3.428569 v 3.42857 h -3.428569 z m 13.714289,0 h 3.42857 v 3.42857 h -3.42857 z M 3.428571,106.28571 h 3.428572 v 3.42858 H 3.428571 Z m 6.857143,0 h 3.428572 v 3.42858 h -3.428572 z m 3.428572,0 h 3.428571 v 3.42858 h -3.428571 z m 3.428571,0 h 3.428572 v 3.42858 h -3.428572 z m 6.857143,0 h 3.428571 v 3.42858 H 24 Z m 6.857143,0 h 3.428571 v 3.42858 h -3.428571 z m 3.428571,0 h 3.428572 v 3.42858 h -3.428572 z m 3.428572,0 h 3.428571 v 3.42858 h -3.428571 z m 6.857143,0 H 48 v 3.42858 h -3.428571 z m 3.428571,0 h 3.428571 v 3.42858 H 48 Z m 17.142857,0 h 3.428572 v 3.42858 h -3.428572 z m 6.857143,0 h 3.428571 v 3.42858 H 72 Z m 3.428571,0 h 3.428572 v 3.42858 h -3.428572 z m 6.857143,0 h 3.428572 v 3.42858 h -3.428572 z m 3.428572,0 h 3.428571 v 3.42858 h -3.428571 z m 6.857143,0 H 96 v 3.42858 h -3.428571 z m 6.857142,0 h 3.428569 v 3.42858 h -3.428569 z m 3.428569,0 h 3.42857 v 3.42858 h -3.42857 z m 3.42857,0 h 3.42858 v 3.42858 h -3.42858 z m 3.42858,0 h 3.42857 v 3.42858 h -3.42857 z m 3.42857,0 h 3.42857 v 3.42858 h -3.42857 z M 3.428571,109.71429 h 3.428572 v 3.42857 H 3.428571 Z m 20.571429,0 h 3.428571 v 3.42857 H 24 Z m 10.285714,0 h 3.428572 v 3.42857 h -3.428572 z m 13.714286,0 h 3.428571 v 3.42857 H 48 Z m 3.428571,0 h 3.428572 v 3.42857 h -3.428572 z m 20.571429,0 h 3.428571 v 3.42857 H 72 Z m 3.428571,0 h 3.428572 v 3.42857 h -3.428572 z m 17.142858,0 H 96 v 3.42857 h -3.428571 z m 10.285711,0 h 3.42857 v 3.42857 h -3.42857 z m -99.428569,3.42857 h 3.428572 v 3.42857 H 3.428571 Z m 3.428572,0 h 3.428571 v 3.42857 H 6.857143 Z m 3.428571,0 h 3.428572 v 3.42857 h -3.428572 z m 3.428572,0 h 3.428571 v 3.42857 h -3.428571 z m 3.428571,0 h 3.428572 v 3.42857 h -3.428572 z m 3.428572,0 H 24 v 3.42857 h -3.428571 z m 3.428571,0 h 3.428571 v 3.42857 H 24 Z m 17.142857,0 h 3.428572 v 3.42857 h -3.428572 z m 3.428572,0 H 48 v 3.42857 h -3.428571 z m 6.857142,0 h 3.428572 v 3.42857 h -3.428572 z m 6.857143,0 h 3.428572 v 3.42857 h -3.428572 z m 13.714286,0 h 3.428571 v 3.42857 H 72 Z m 3.428571,0 h 3.428572 v 3.42857 h -3.428572 z m 10.285715,0 h 3.428571 v 3.42857 h -3.428571 z m 3.428571,0 h 3.428572 v 3.42857 h -3.428572 z m 3.428572,0 H 96 v 3.42857 h -3.428571 z m 6.857142,0 h 3.428569 v 3.42857 h -3.428569 z m 3.428569,0 h 3.42857 v 3.42857 h -3.42857 z m 3.42857,0 h 3.42858 v 3.42857 h -3.42858 z m 6.85715,0 h 3.42857 v 3.42857 h -3.42857 z"
     id="path4"
     inkscape:connector-curvature="0"
     style="fill:#000000;stroke-width:3.42857146" />
</svg>
