<?xml version="1.0" encoding="UTF-8" standalone="no"?>
<!-- Generator: Adobe Illustrator 21.0.0, SVG Export Plug-In . SVG Version: 6.00 Build 0)  -->

<svg
   xmlns:dc="http://purl.org/dc/elements/1.1/"
   xmlns:cc="http://creativecommons.org/ns#"
   xmlns:rdf="http://www.w3.org/1999/02/22-rdf-syntax-ns#"
   xmlns:svg="http://www.w3.org/2000/svg"
   xmlns="http://www.w3.org/2000/svg"
   xmlns:sodipodi="http://sodipodi.sourceforge.net/DTD/sodipodi-0.dtd"
   xmlns:inkscape="http://www.inkscape.org/namespaces/inkscape"
   version="1.1"
   id="Layer_1"
   x="0px"
   y="0px"
   viewBox="0 0 199.55707 43.000001"
   xml:space="preserve"
   sodipodi:docname="Browserstack-logo.svg"
   width="199.55707"
   height="43"
   inkscape:version="0.92.3 (2405546, 2018-03-11)"><metadata
   id="metadata62"><rdf:RDF><cc:Work
       rdf:about=""><dc:format>image/svg+xml</dc:format><dc:type
         rdf:resource="http://purl.org/dc/dcmitype/StillImage" /></cc:Work></rdf:RDF></metadata><defs
   id="defs60" /><sodipodi:namedview
   pagecolor="#ffffff"
   bordercolor="#666666"
   borderopacity="1"
   objecttolerance="10"
   gridtolerance="10"
   guidetolerance="10"
   inkscape:pageopacity="0"
   inkscape:pageshadow="2"
   inkscape:window-width="1457"
   inkscape:window-height="701"
   id="namedview58"
   showgrid="false"
   inkscape:zoom="0.78963476"
   inkscape:cx="99.791033"
   inkscape:cy="21.5"
   inkscape:window-x="1816"
   inkscape:window-y="150"
   inkscape:window-maximized="0"
   inkscape:current-layer="Layer_1" />
<style
   type="text/css"
   id="style2">
	.st0{fill:#F4B960;}
	.st1{fill:#E66F32;}
	.st2{fill:#E43C41;}
	.st3{fill:#BDD041;}
	.st4{fill:#6DB54C;}
	.st5{fill:#AEDAE6;}
	.st6{fill:#56B8DE;}
	.st7{fill:#00B1D5;}
	.st8{fill:url(#SVGID_1_);}
	.st9{fill:#221F1F;}
	.st10{fill:#FFFFFF;}
	.st11{fill:#000111;}
</style>
<title
   id="title4">Browserstack-logo-white</title>
<circle
   class="st0"
   cx="21.5"
   cy="21.5"
   id="circle6"
   style="fill:#f4b960;stroke-width:0.407197"
   r="21.5" />
<circle
   class="st1"
   cx="19.341858"
   cy="19.341858"
   id="circle8"
   style="fill:#e66f32;stroke-width:0.407197"
   r="19.341856" />
<circle
   class="st2"
   cx="21.907196"
   cy="16.735796"
   id="circle10"
   style="fill:#e43c41;stroke-width:0.407197"
   r="16.735796" />
<circle
   class="st3"
   cx="23.250946"
   cy="18.079548"
   id="circle12"
   style="fill:#bdd041;stroke-width:0.407197"
   r="15.392045" />
<circle
   class="st4"
   cx="22.110786"
   cy="19.2197"
   id="circle14"
   style="fill:#6db54c;stroke-width:0.407197"
   r="14.292613" />
<circle
   class="st5"
   cx="19.871208"
   cy="16.980116"
   id="circle16"
   style="fill:#aedae6;stroke-width:0.407197"
   r="12.01231" />
<circle
   class="st6"
   cx="21.82576"
   cy="14.98485"
   id="circle18"
   style="fill:#56b8de;stroke-width:0.407197"
   r="10.057765" />
<circle
   class="st7"
   cx="23.04734"
   cy="16.24716"
   id="circle20"
   style="fill:#00b1d5;stroke-width:0.407197"
   r="8.836174" />
<radialGradient
   id="SVGID_1_"
   cx="53.450001"
   cy="63.02"
   r="18.57"
   gradientTransform="matrix(0.40719697,0,0,-0.40719697,7.8369141e-7,43.162881)"
   gradientUnits="userSpaceOnUse">
	<stop
   offset="0"
   style="stop-color:#797979"
   id="stop22" />
	<stop
   offset="1"
   style="stop-color:#4C4C4C"
   id="stop24" />
</radialGradient>
<circle
   class="st8"
   cx="21.785034"
   cy="17.509472"
   id="circle27"
   style="fill:url(#SVGID_1_);stroke-width:0.407197"
   r="7.573864" />
<circle
   class="st9"
   cx="21.785034"
   cy="17.509472"
   id="circle29"
   style="fill:#221f1f;stroke-width:0.407197"
   r="7.573864" />
<ellipse
   transform="rotate(-65.831561)"
   class="st10"
   cx="-3.2989421"
   cy="28.638475"
   rx="2.3209062"
   ry="1.5065532"
   id="ellipse31"
   style="fill:#ffffff;stroke-width:0.40717655" />
<path
   class="st11"
   d="m 49.881626,13.274623 c 0,-0.12216 0.12216,-0.244318 0.24432,-0.244318 0,0 0,0 0.0407,0 h 6.75947 c 3.86837,0 5.66004,1.791666 5.66004,4.479167 0.0814,1.506628 -0.73295,2.931818 -2.11742,3.583333 v 0.04072 c 1.50662,0.610795 2.4839,2.117424 2.44318,3.786932 0,3.339015 -2.2803,4.967803 -6.27083,4.967803 h -6.51515 c -0.12217,0 -0.24432,-0.08144 -0.28504,-0.203599 0,0 0,0 0,-0.04072 l 0.0407,-16.369318 z m 6.96307,6.71875 c 1.58807,0 2.60606,-0.895833 2.60606,-2.198864 0,-1.30303 -0.97727,-2.239583 -2.60606,-2.239583 h -3.62405 c -0.0814,0 -0.16288,0.04072 -0.16288,0.122159 0,0 0,0 0,0.04072 v 4.153409 c 0,0.08144 0.0407,0.122159 0.12216,0.162879 0,0 0,0 0.0407,0 h 3.62405 z m -3.66477,7.248106 h 3.78693 c 1.75095,0 2.76894,-0.936553 2.76894,-2.361742 0,-1.42519 -0.97727,-2.321023 -2.72822,-2.321023 h -3.78693 c -0.0814,0 -0.16288,0.04072 -0.16288,0.122159 0,0 0,0 0,0.04072 V 27.0786 c 0,0.12216 0.0407,0.162879 0.12216,0.162879 0,0 0,0 0,0 z"
   id="path33"
   inkscape:connector-curvature="0"
   style="fill:#000111;stroke-width:0.407197" />
<path
   class="st11"
   d="m 65.110796,29.84754 c -0.12216,0 -0.24432,-0.08144 -0.28504,-0.203599 0,0 0,0 0,-0.04072 V 18.160987 c 0,-0.12216 0.12216,-0.244319 0.24432,-0.244319 0,0 0,0 0.0407,0 h 2.44318 c 0.12215,0 0.24432,0.08144 0.28503,0.203599 0,0 0,0 0,0.04072 v 1.017992 h 0.0407 c 0.6108,-0.895833 1.71023,-1.547348 3.33902,-1.547348 0.97727,0 1.95454,0.325757 2.6875,0.977272 0.12215,0.12216 0.16287,0.203599 0.0407,0.325758 l -1.42519,1.669507 c -0.0814,0.12216 -0.24432,0.162879 -0.36648,0.08144 0,0 0,0 -0.0407,0 -0.57008,-0.366477 -1.22159,-0.570076 -1.91383,-0.570076 -1.6695,0 -2.44318,1.099432 -2.44318,3.013258 v 6.474432 c 0,0.122159 -0.12216,0.244318 -0.24432,0.244318 0,0 0,0 -0.0407,0 h -2.36173 z"
   id="path35"
   inkscape:connector-curvature="0"
   style="fill:#000111;stroke-width:0.407197" />
<path
   class="st11"
   d="m 74.476326,26.793562 c -0.32576,-0.936553 -0.44792,-1.954545 -0.44792,-2.931818 -0.0407,-1.017992 0.12216,-1.995265 0.44792,-2.931818 0.73295,-2.076704 2.6875,-3.298296 5.33428,-3.298296 2.64678,0 4.5606,1.221592 5.29356,3.298296 0.32576,0.936553 0.44792,1.954546 0.44792,2.931818 0.0407,1.017993 -0.12216,1.995265 -0.44792,2.931818 -0.73296,2.076705 -2.6875,3.298296 -5.29356,3.298296 -2.60606,0 -4.60133,-1.180871 -5.33428,-3.298296 z m 7.73674,-0.732954 c 0.2036,-0.692235 0.32576,-1.465909 0.28504,-2.198864 0.0407,-0.732954 -0.0407,-1.506629 -0.28504,-2.198864 -0.36648,-1.017992 -1.34375,-1.628787 -2.40246,-1.547348 -1.05871,-0.08144 -2.0767,0.570076 -2.44318,1.547348 -0.2036,0.732955 -0.32576,1.46591 -0.28504,2.198864 -0.0407,0.732955 0.0407,1.506629 0.28504,2.198864 0.36648,1.017992 1.38447,1.628787 2.44318,1.547348 1.05871,0.08144 2.03598,-0.529356 2.40246,-1.547348 z"
   id="path37"
   inkscape:connector-curvature="0"
   style="fill:#000111;stroke-width:0.407197" />
<path
   class="st11"
   d="m 98.500946,29.84754 c -0.16288,0 -0.28504,-0.12216 -0.32576,-0.244318 l -2.4839,-7.655304 h -0.0407 l -2.52461,7.614584 c -0.0407,0.162878 -0.16288,0.244318 -0.32576,0.244318 h -2.19886 c -0.16288,0 -0.28504,-0.122159 -0.32576,-0.244318 l -4.07197,-11.442235 c -0.0407,-0.08144 0,-0.203599 0.0814,-0.244319 0.0407,0 0.0814,-0.04072 0.12216,0 h 2.56534 c 0.16288,0 0.32576,0.08144 0.36648,0.244319 l 2.4839,7.858902 h 0.0407 l 2.44319,-7.858902 c 0.0407,-0.162879 0.2036,-0.244319 0.36647,-0.244319 h 1.91383 c 0.16288,0 0.28503,0.08144 0.36648,0.244319 l 2.60605,7.858902 h 0.0407 l 2.361744,-7.858902 c 0.0407,-0.162879 0.2036,-0.285038 0.36648,-0.244319 h 2.56534 c 0.0814,-0.04072 0.2036,0.04072 0.2036,0.12216 0,0.04072 0,0.08144 0,0.122159 l -4.07199,11.442235 c -0.0407,0.162878 -0.16288,0.244318 -0.32576,0.244318 l -2.198864,0.04072 z"
   id="path39"
   inkscape:connector-curvature="0"
   style="fill:#000111;stroke-width:0.407197" />
<path
   class="st11"
   d="m 105.58618,28.218752 c -0.0814,-0.08144 -0.12216,-0.244318 -0.0407,-0.325758 0,0 0,0 0.0407,-0.04072 l 1.50663,-1.465909 c 0.12215,-0.08144 0.28504,-0.08144 0.36647,0 1.05872,0.855114 2.40247,1.34375 3.78693,1.34375 1.58807,0 2.40247,-0.610795 2.40247,-1.425189 0,-0.732955 -0.44792,-1.180871 -2.11743,-1.303031 l -1.38447,-0.122159 c -2.60605,-0.244318 -3.9498,-1.465909 -3.9498,-3.501894 0,-2.321022 1.79166,-3.746212 5.00852,-3.746212 1.71023,-0.04072 3.42045,0.488637 4.84564,1.465909 0.12216,0.08144 0.12216,0.203599 0.0814,0.325758 0,0 0,0 0,0.04072 l -1.30303,1.465909 c -0.0814,0.122159 -0.24432,0.122159 -0.36648,0.04072 -1.01799,-0.610796 -2.19886,-0.977273 -3.37973,-0.977273 -1.26231,0 -1.95455,0.529356 -1.95455,1.221591 0,0.692235 0.44792,1.099432 2.11742,1.262311 l 1.38447,0.122158 c 2.6875,0.244319 3.99053,1.547349 3.99053,3.501895 0,2.361742 -1.8731,4.03125 -5.41571,4.03125 -2.07671,0 -4.03125,-0.651515 -5.61932,-1.913826 z"
   id="path41"
   inkscape:connector-curvature="0"
   style="fill:#000111;stroke-width:0.407197" />
<path
   class="st11"
   d="m 118.57576,26.793562 c -0.32576,-0.936553 -0.48863,-1.913825 -0.44791,-2.931818 -0.0407,-1.017992 0.12215,-1.995265 0.40719,-2.931818 0.73296,-2.076704 2.6875,-3.298296 5.25284,-3.298296 2.64678,0 4.56061,1.262311 5.29357,3.298296 0.28503,0.855114 0.40719,1.669507 0.40719,3.583333 0,0.122159 -0.12216,0.244318 -0.24432,0.244318 0,0 -0.0407,0 -0.0407,0 h -7.94035 c -0.0814,0 -0.16287,0.04072 -0.16287,0.12216 0,0 0,0 0,0.04072 0,0.325757 0.0814,0.610795 0.20359,0.895833 0.4072,1.180871 1.4252,1.791667 2.8911,1.791667 1.09943,0.04072 2.19887,-0.366478 3.01326,-1.140152 0.0814,-0.122159 0.28504,-0.162878 0.4072,-0.04072 0,0 0,0 0,0 l 1.58807,1.30303 c 0.0814,0.04072 0.12215,0.203599 0.0814,0.285039 0,0.04072 -0.0407,0.04072 -0.0407,0.04072 -1.09944,1.180871 -2.93182,2.035984 -5.29357,2.035984 -2.6875,0 -4.64205,-1.22159 -5.375,-3.298295 z m 7.81819,-5.29356 c -0.36649,-0.977273 -1.30304,-1.547349 -2.52463,-1.547349 -1.22159,0 -2.19886,0.570076 -2.52462,1.547349 -0.12216,0.325757 -0.16288,0.651515 -0.16288,1.017992 0,0.08144 0.0407,0.122159 0.12216,0.162879 0,0 0,0 0.0407,0 h 5.04924 c 0.0814,0 0.16288,-0.04072 0.16288,-0.122159 0,0 0,0 0,-0.04072 0,-0.325757 -0.0814,-0.692235 -0.16288,-1.017992 z"
   id="path43"
   inkscape:connector-curvature="0"
   style="fill:#000111;stroke-width:0.407197" />
<path
   class="st11"
   d="m 131.76895,29.84754 c -0.12217,0 -0.24432,-0.08144 -0.28504,-0.203599 0,0 0,0 0,-0.04072 V 18.160987 c 0,-0.12216 0.12215,-0.244319 0.24432,-0.244319 0,0 0,0 0.0407,0 h 2.44318 c 0.12216,0 0.24432,0.08144 0.28504,0.203599 0,0 0,0 0,0.04072 v 1.017992 h 0.0407 c 0.6108,-0.895833 1.71023,-1.547348 3.33902,-1.547348 0.97728,0 1.95455,0.325757 2.6875,0.977272 0.12216,0.12216 0.16288,0.203599 0.0407,0.325758 l -1.42519,1.669507 c -0.0814,0.12216 -0.24432,0.162879 -0.36648,0.08144 0,0 0,0 -0.0407,0 -0.57007,-0.366477 -1.22159,-0.570076 -1.91382,-0.570076 -1.66951,0 -2.44318,1.099432 -2.44318,3.013258 v 6.474432 c 0,0.122159 -0.12217,0.244318 -0.24432,0.244318 0,0 0,0 -0.0407,0 h -2.36174 z"
   id="path45"
   inkscape:connector-curvature="0"
   style="fill:#000111;stroke-width:0.407197" />
<path
   class="st11"
   d="m 141.09375,27.892994 c -0.12215,-0.08144 -0.16287,-0.244318 -0.0814,-0.366477 0,0 0,0 0,0 l 1.66951,-1.791667 c 0.0814,-0.122159 0.24432,-0.122159 0.36648,-0.04072 0,0 0,0 0,0 1.42519,1.099432 3.13541,1.710227 4.92708,1.791667 2.15815,0 3.42046,-1.017992 3.42046,-2.443182 0,-1.221591 -0.81439,-1.995265 -3.2983,-2.321023 l -0.97727,-0.122159 c -3.50189,-0.447916 -5.49716,-1.995265 -5.49716,-4.804924 0,-3.053977 2.40246,-5.049242 6.14867,-5.049242 2.07671,-0.04072 4.1127,0.570075 5.90436,1.710227 0.12216,0.04072 0.16288,0.162879 0.0814,0.285038 0,0.04072 -0.0407,0.04072 -0.0407,0.08144 l -1.26231,1.832386 c -0.0814,0.12216 -0.24432,0.16288 -0.36647,0.08144 -1.30303,-0.855114 -2.80967,-1.30303 -4.35701,-1.30303 -1.83239,0 -2.85038,0.936553 -2.85038,2.239583 0,1.180871 0.89584,1.954545 3.33902,2.280303 l 0.97727,0.122159 c 3.50189,0.447917 5.41572,1.995265 5.41572,4.886364 0,2.972538 -2.32102,5.212121 -6.84091,5.212121 -2.6875,-0.08144 -5.25284,-1.058712 -6.67803,-2.280303 z"
   id="path47"
   inkscape:connector-curvature="0"
   style="fill:#000111;stroke-width:0.407197" />
<path
   class="st11"
   d="m 160.15057,30.051138 c -2.60606,0 -3.58333,-1.180871 -3.58333,-3.501894 v -6.270833 c 0,-0.08144 -0.0407,-0.122159 -0.12216,-0.162879 0,0 0,0 -0.0407,0 h -0.85511 c -0.12216,0 -0.24432,-0.08144 -0.28504,-0.203599 0,0 0,0 0,-0.04072 v -1.669508 c 0,-0.122159 0.12216,-0.244318 0.24432,-0.244318 0,0 0,0 0.0407,0 h 0.85511 c 0.0814,0 0.16288,-0.04072 0.16288,-0.122159 0,0 0,0 0,-0.04072 V 14.53693 c 0,-0.122159 0.12216,-0.244318 0.24432,-0.244318 0,0 0,0 0.0407,0 h 2.44318 c 0.12217,0 0.24432,0.08144 0.28504,0.203598 0,0 0,0 0,0.04072 v 3.257577 c 0,0.08144 0.0407,0.122158 0.12216,0.162878 0,0 0,0 0.0407,0 h 1.71023 c 0.12215,0 0.24432,0.08144 0.28504,0.203599 0,0 0,0 0,0.04072 v 1.669508 c 0,0.122159 -0.12217,0.244318 -0.24432,0.244318 0,0 0,0 -0.0407,0 h -1.71023 c -0.0814,0 -0.16288,0.04072 -0.16288,0.122159 0,0 0,0 0,0.04072 v 6.189394 c 0,0.855114 0.36648,1.099432 1.22159,1.099432 h 0.65152 c 0.12216,0 0.24432,0.08144 0.28504,0.203598 0,0 0,0 0,0.04072 v 1.995265 c 0,0.12216 -0.12216,0.244318 -0.24432,0.244318 0,0 0,0 -0.0407,0 h -1.30303 z"
   id="path49"
   inkscape:connector-curvature="0"
   style="fill:#000111;stroke-width:0.407197" />
<path
   class="st11"
   d="m 171.51137,29.84754 c -0.12216,0 -0.24432,-0.08144 -0.28504,-0.203599 0,0 0,0 0,-0.04072 v -0.855114 0 c -0.6108,0.814395 -1.83238,1.38447 -3.62405,1.38447 -2.36175,0 -4.31629,-1.140151 -4.31629,-3.624053 0,-2.60606 1.99526,-3.786932 5.1714,-3.786932 h 2.60606 c 0.0814,0 0.16288,-0.04072 0.16288,-0.122159 0,0 0,0 0,-0.04072 v -0.570076 c 0,-1.34375 -0.69223,-1.995265 -2.85038,-1.995265 -1.05871,-0.04072 -2.0767,0.244318 -2.93182,0.814394 -0.12215,0.08144 -0.28503,0.08144 -0.36647,-0.04072 0,0 0,0 0,-0.04072 l -0.97728,-1.628788 c -0.0814,-0.08144 -0.0407,-0.244318 0.0407,-0.325757 0,0 0,0 0,0 1.05871,-0.692235 2.44318,-1.180872 4.5606,-1.180872 3.9091,0 5.375,1.221591 5.375,4.153409 v 7.777463 c 0,0.122159 -0.12215,0.244318 -0.24431,0.244318 0,0 0,0 -0.0407,0 h -2.2803 z m -0.32576,-4.03125 v -0.895834 c 0,-0.08144 -0.0407,-0.122159 -0.12216,-0.162879 0,0 0,0 -0.0407,0 h -2.11742 c -1.91383,0 -2.76894,0.488637 -2.76894,1.588068 0,0.977274 0.77368,1.46591 2.23959,1.46591 1.79166,0.04072 2.80965,-0.610796 2.80965,-1.995265 z"
   id="path51"
   inkscape:connector-curvature="0"
   style="fill:#000111;stroke-width:0.407197" />
<path
   class="st11"
   d="m 176.35701,26.793562 c -0.28503,-0.936553 -0.44791,-1.954545 -0.40719,-2.931818 -0.0407,-0.977272 0.12216,-1.995265 0.40719,-2.931818 0.73296,-2.117424 2.72822,-3.298296 5.33428,-3.298296 1.71023,-0.08144 3.33902,0.610796 4.47917,1.873107 0.0814,0.08144 0.0814,0.244318 0,0.325757 0,0 0,0 -0.0407,0.04072 l -1.66951,1.34375 c -0.12215,0.08144 -0.28503,0.08144 -0.36647,-0.04072 0,0 0,0 0,-0.04072 -0.6108,-0.692235 -1.46591,-1.058712 -2.40246,-1.017992 -1.14015,0 -2.03599,0.529356 -2.40247,1.547348 -0.2036,0.732955 -0.32575,1.465909 -0.28503,2.198864 -0.0407,0.732955 0.0407,1.506629 0.28503,2.239583 0.36648,1.017993 1.26232,1.547349 2.40247,1.547349 0.89583,0.04072 1.79166,-0.366477 2.40246,-1.058712 0.0814,-0.122159 0.24432,-0.122159 0.36647,-0.04072 0,0 0,0 0,0 l 1.66951,1.34375 c 0.12216,0.08144 0.12216,0.203598 0.0407,0.325757 0,0 0,0 -0.0407,0.04072 -1.18087,1.221591 -2.80966,1.873106 -4.47916,1.832386 -2.56535,0 -4.51989,-1.140151 -5.29357,-3.298295 z"
   id="path53"
   inkscape:connector-curvature="0"
   style="fill:#000111;stroke-width:0.407197" />
<path
   class="st11"
   d="m 196.5947,29.84754 c -0.16288,0 -0.32575,-0.08144 -0.4072,-0.244318 l -3.25757,-5.008523 -1.75095,1.873106 v 3.135417 c 0,0.122158 -0.12216,0.244318 -0.24432,0.244318 0,0 0,0 -0.0407,0 h -2.44318 c -0.12216,0 -0.24432,-0.08144 -0.28504,-0.203599 0,0 0,0 0,-0.04072 V 13.274622 c 0,-0.12216 0.12216,-0.244318 0.24432,-0.244318 0,0 0,0 0.0407,0 h 2.44319 c 0.12215,0 0.24431,0.08144 0.28503,0.203598 0,0 0,0 0,0.04072 v 9.691288 l 4.39773,-4.804924 c 0.12216,-0.162879 0.32576,-0.244319 0.48864,-0.244319 h 2.72822 c 0.0814,0 0.16288,0.04072 0.16288,0.122159 0,0.04072 0,0.12216 -0.0407,0.12216 l -4.11269,4.357007 4.72349,7.085228 c 0.0407,0.08144 0.0407,0.162878 0,0.203598 -0.0407,0.04072 -0.0815,0.04072 -0.12217,0.04072 h -2.80965 z"
   id="path55"
   inkscape:connector-curvature="0"
   style="fill:#000111;stroke-width:0.407197" />
</svg>