<?xml version="1.0" encoding="UTF-8" standalone="no"?>
<svg
   xmlns:dc="http://purl.org/dc/elements/1.1/"
   xmlns:cc="http://creativecommons.org/ns#"
   xmlns:rdf="http://www.w3.org/1999/02/22-rdf-syntax-ns#"
   xmlns:svg="http://www.w3.org/2000/svg"
   xmlns="http://www.w3.org/2000/svg"
   xmlns:xlink="http://www.w3.org/1999/xlink"
   xmlns:sodipodi="http://sodipodi.sourceforge.net/DTD/sodipodi-0.dtd"
   xmlns:inkscape="http://www.inkscape.org/namespaces/inkscape"
   version="1.1"
   id="Layer_1"
   x="0px"
   y="0px"
   viewBox="0 0 32 34.666668"
   xml:space="preserve"
   sodipodi:docname="mergefile.svg"
   width="32"
   height="34.666668"
   inkscape:version="0.92.3 (2405546, 2018-03-11)"><metadata
   id="metadata49"><rdf:RDF><cc:Work
       rdf:about=""><dc:format>image/svg+xml</dc:format><dc:type
         rdf:resource="http://purl.org/dc/dcmitype/StillImage" /><dc:title></dc:title></cc:Work></rdf:RDF></metadata><defs
   id="defs47" /><sodipodi:namedview
   pagecolor="#ffffff"
   bordercolor="#666666"
   borderopacity="1"
   objecttolerance="10"
   gridtolerance="10"
   guidetolerance="10"
   inkscape:pageopacity="0"
   inkscape:pageshadow="2"
   inkscape:window-width="1920"
   inkscape:window-height="1017"
   id="namedview45"
   showgrid="false"
   inkscape:zoom="3.6875"
   inkscape:cx="25.501017"
   inkscape:cy="11.534011"
   inkscape:window-x="1432"
   inkscape:window-y="-8"
   inkscape:window-maximized="1"
   inkscape:current-layer="Layer_1" />
<linearGradient
   id="SVGID_1__59924"
   gradientUnits="userSpaceOnUse"
   x1="22"
   y1="-807.0849"
   x2="22"
   y2="-814.9281"
   gradientTransform="matrix(0.66666665,0,0,-0.66666665,-5.3333332,-519.99999)"
   spreadMethod="reflect"
   xlink:href="#SVGID_6__59924">
	<stop
   offset="0"
   style="stop-color:#6DC7FF"
   id="stop2" />
	<stop
   offset="1"
   style="stop-color:#E6ABFF"
   id="stop4" />
</linearGradient>
<path
   style="fill:#1a6dff;stroke-width:0.66666669;fill-opacity:1"
   d="m 14.309333,21.308 -3.004,1.877333 C 10.738,23.54 10.002,23.132 10.002,22.463333 v -1.13 h -6 V 20 h 6 v -1.13 c 0,-0.668667 0.736,-1.076667 1.303333,-0.722 l 3.004,1.877333 c 0.474,0.296 0.474,0.986667 0,1.282667 z"
   id="path7"
   inkscape:connector-curvature="0" />
<linearGradient
   id="SVGID_2__59924"
   gradientUnits="userSpaceOnUse"
   x1="41.502899"
   y1="-799.0849"
   x2="41.502899"
   y2="-806.9281"
   gradientTransform="matrix(0.66666665,0,0,-0.66666665,-5.3333332,-519.99999)"
   spreadMethod="reflect">
	<stop
   offset="0"
   style="stop-color:#6DC7FF"
   id="stop9" />
	<stop
   offset="1"
   style="stop-color:#E6ABFF"
   id="stop11" />
</linearGradient>
<path
   style="fill:#1a6dff;stroke-width:0.66666669;fill-opacity:1"
   d="m 17.026,14.692 3.004,-1.877333 c 0.567333,-0.354667 1.303333,0.05333 1.303333,0.722 v 1.129999 H 28 V 16 h -6.666667 v 1.13 c 0,0.668666 -0.736,1.076666 -1.303333,0.722 l -3.004,-1.877334 c -0.474,-0.296 -0.474,-0.986666 0,-1.282666 z"
   id="path14"
   inkscape:connector-curvature="0" />
<linearGradient
   id="SVGID_3__59924"
   gradientUnits="userSpaceOnUse"
   x1="36.251202"
   y1="6.375"
   x2="36.251202"
   y2="57.390301"
   spreadMethod="reflect">
	<stop
   offset="0"
   style="stop-color:#1A6DFF"
   id="stop16" />
	<stop
   offset="1"
   style="stop-color:#C822FF"
   id="stop18" />
</linearGradient>
<polygon
   style="fill:url(#SVGID_3__59924)"
   points="35.54,36.549 38.73,42.575 36.963,43.511 33.772,37.484 "
   id="polygon21"
   transform="matrix(0.66666667,0,0,0.66666667,-5.3333333,-4)" />
<linearGradient
   id="SVGID_4__59924"
   gradientUnits="userSpaceOnUse"
   x1="31.971901"
   y1="6.5"
   x2="31.971901"
   y2="57.500599"
   spreadMethod="reflect">
	<stop
   offset="0"
   style="stop-color:#1A6DFF"
   id="stop23" />
	<stop
   offset="1"
   style="stop-color:#C822FF"
   id="stop25" />
</linearGradient>
<polygon
   style="fill:url(#SVGID_4__59924)"
   points="31.247,28.439 34.465,34.519 32.697,35.454 29.479,29.375 "
   id="polygon28"
   transform="matrix(0.66666667,0,0,0.66666667,-5.3333333,-4)" />
<linearGradient
   id="SVGID_5__59924"
   gradientUnits="userSpaceOnUse"
   x1="27.7803"
   y1="6.125"
   x2="27.7803"
   y2="57.4702"
   spreadMethod="reflect">
	<stop
   offset="0"
   style="stop-color:#1A6DFF"
   id="stop30" />
	<stop
   offset="1"
   style="stop-color:#C822FF"
   id="stop32" />
</linearGradient>
<polygon
   style="fill:url(#SVGID_5__59924)"
   points="27.102,20.61 30.227,26.513 28.459,27.448 25.334,21.546 "
   id="polygon35"
   transform="matrix(0.66666667,0,0,0.66666667,-5.3333333,-4)" />
<linearGradient
   id="SVGID_6__59924"
   gradientUnits="userSpaceOnUse"
   x1="32"
   y1="6"
   x2="32"
   y2="58"
   spreadMethod="reflect"
   gradientTransform="matrix(0.66666665,0,0,0.66666665,-5.3333332,-3.9999999)">
	<stop
   offset="0"
   style="stop-color:#1A6DFF"
   id="stop37" />
	<stop
   offset="1"
   style="stop-color:#C822FF"
   id="stop39" />
</linearGradient>
<path
   style="fill:url(#SVGID_6__59924);stroke-width:0.66666669"
   d="M 31.414,5.8046666 26.195333,0.586 C 25.818,0.208 25.315333,0 24.780667,0 H 11.333333 C 10.230667,0 9.3333333,0.8973333 9.3333333,2 V 5.3333333 H 2 c -1.1026667,0 -2,0.8973333 -2,2 V 32.666666 c 0,1.102667 0.8973333,2 2,2 h 18.666667 c 1.102666,0 2,-0.897333 2,-2 V 29.333333 H 30 c 1.102667,0 2,-0.897333 2,-2 V 7.2186666 c 0,-0.534 -0.208,-1.0366666 -0.586,-1.414 z M 26,2.276 29.724,6 H 26.666667 C 26.299333,6 26,5.7013333 26,5.3333333 Z m 4.666667,25.057333 C 30.666667,27.701333 30.367333,28 30,28 h -7.598667 l -1.226,-2.316 -1.178666,0.624 1.336666,2.524 v 0.501333 3.333333 c 0,0.368 -0.299333,0.666667 -0.666666,0.666667 H 2 c -0.3673333,0 -0.6666667,-0.298667 -0.6666667,-0.666667 V 7.3333333 c 0,-0.368 0.2993334,-0.6666667 0.6666667,-0.6666667 H 9.3333333 9.5986667 L 10.796667,8.93 11.975333,8.306 10.666667,5.8346666 V 2 c 0,-0.368 0.299333,-0.6666667 0.666666,-0.6666667 h 13.333334 v 4 c 0,1.1026667 0.897333,2 2,2 h 4 z"
   id="path42"
   inkscape:connector-curvature="0" />
</svg>