<?xml version="1.0" encoding="UTF-8" standalone="no"?>
<!-- Generator: Adobe Illustrator 20.1.0, SVG Export Plug-In . SVG Version: 6.00 Build 0)  -->

<svg
   xmlns:dc="http://purl.org/dc/elements/1.1/"
   xmlns:cc="http://creativecommons.org/ns#"
   xmlns:rdf="http://www.w3.org/1999/02/22-rdf-syntax-ns#"
   xmlns:svg="http://www.w3.org/2000/svg"
   xmlns="http://www.w3.org/2000/svg"
   xmlns:sodipodi="http://sodipodi.sourceforge.net/DTD/sodipodi-0.dtd"
   xmlns:inkscape="http://www.inkscape.org/namespaces/inkscape"
   version="1.1"
   id="Слой_1"
   x="0px"
   y="0px"
   viewBox="0 0 48 48"
   xml:space="preserve"
   width="48"
   height="48"
   sodipodi:docname="icons8-puzzle.svg"
   inkscape:version="0.92.3 (2405546, 2018-03-11)"><metadata
   id="metadata21"><rdf:RDF><cc:Work
       rdf:about=""><dc:format>image/svg+xml</dc:format><dc:type
         rdf:resource="http://purl.org/dc/dcmitype/StillImage" /></cc:Work></rdf:RDF></metadata><defs
   id="defs19" /><sodipodi:namedview
   pagecolor="#ffffff"
   bordercolor="#666666"
   borderopacity="1"
   objecttolerance="10"
   gridtolerance="10"
   guidetolerance="10"
   inkscape:pageopacity="0"
   inkscape:pageshadow="2"
   inkscape:window-width="1920"
   inkscape:window-height="1017"
   id="namedview17"
   showgrid="false"
   inkscape:zoom="3.6875"
   inkscape:cx="24"
   inkscape:cy="24"
   inkscape:window-x="1432"
   inkscape:window-y="-8"
   inkscape:window-maximized="1"
   inkscape:current-layer="Слой_1" />
<linearGradient
   id="SVGID_1__48332"
   gradientUnits="userSpaceOnUse"
   x1="43.5"
   y1="23"
   x2="43.5"
   y2="57.3302"
   spreadMethod="reflect"
   gradientTransform="translate(-8,-8)">
	<stop
   offset="0"
   style="stop-color:#6DC7FF"
   id="stop2" />
	<stop
   offset="1"
   style="stop-color:#E6ABFF"
   id="stop4" />
</linearGradient>
<path
   style="fill:url(#SVGID_1__48332)"
   d="m 39.477,24 c 0.633,-0.838 1.023,-1.869 1.023,-3 0,-2.761 -2.239,-5 -5,-5 -2.761,0 -5,2.239 -5,5 0,1.131 0.39,2.162 1.023,3 H 24 v 8 c 0.83,-0.63 1.87,-1 3,-1 2.76,0 5,2.24 5,5 0,2.76 -2.24,5 -5,5 -1.13,0 -2.17,-0.37 -3,-1 v 7 H 42.47 C 44.97,47 47,44.97 47,42.47 V 24 Z"
   id="path7"
   inkscape:connector-curvature="0" />
<linearGradient
   id="SVGID_2__48332"
   gradientUnits="userSpaceOnUse"
   x1="32"
   y1="6.6666999"
   x2="32"
   y2="57.684399"
   spreadMethod="reflect"
   gradientTransform="translate(-8,-8)">
	<stop
   offset="0"
   style="stop-color:#1A6DFF"
   id="stop9" />
	<stop
   offset="1"
   style="stop-color:#C822FF"
   id="stop11" />
</linearGradient>
<path
   style="fill:url(#SVGID_2__48332)"
   d="M 43,0 H 25 23 5 C 2.243,0 0,2.243 0,5 v 18 2 18 c 0,2.757 2.243,5 5,5 h 18 2 18 c 2.757,0 5,-2.243 5,-5 V 25 23 5 C 48,2.243 45.757,0 43,0 Z M 2,5 C 2,3.346 3.346,2 5,2 H 23 V 6.851 C 22.361,6.62 21.687,6.5 21,6.5 c -1.803,0 -3.494,0.8 -4.64,2.195 -1.145,1.395 -1.596,3.226 -1.239,5.024 0.45,2.267 2.28,4.128 4.554,4.633 1.136,0.252 2.273,0.178 3.325,-0.203 V 23 h -6 -2.531 l 1.21,1.603 c 0.537,0.711 0.82,1.54 0.82,2.397 0,1.202 -0.534,2.33 -1.464,3.094 -0.943,0.774 -2.138,1.067 -3.366,0.823 C 10.168,30.619 8.934,29.403 8.598,27.891 8.34,26.728 8.596,25.56 9.319,24.603 L 10.531,23 H 8 2 Z M 23,46 H 5 C 3.346,46 2,44.654 2,43 V 25 h 4.85 c -0.381,1.051 -0.455,2.189 -0.203,3.325 0.505,2.274 2.367,4.104 4.633,4.554 0.404,0.08 0.809,0.12 1.21,0.12 1.388,0 2.732,-0.471 3.814,-1.359 C 17.7,30.494 18.5,28.803 18.5,27 c 0,-0.688 -0.119,-1.361 -0.351,-2 H 23 v 7 1.531 l 1.603,-1.211 c 0.957,-0.724 2.125,-0.978 3.288,-0.721 1.512,0.336 2.728,1.57 3.026,3.071 0.244,1.227 -0.049,2.422 -0.823,3.366 -1.31,1.594 -3.786,1.933 -5.491,0.644 L 23,37.468 V 39 Z m 23,-3 c 0,1.654 -1.346,3 -3,3 H 25 v -4.851 c 0.639,0.231 1.312,0.351 2,0.351 1.803,0 3.494,-0.8 4.64,-2.195 1.145,-1.395 1.596,-3.226 1.239,-5.024 -0.45,-2.267 -2.28,-4.128 -4.554,-4.633 C 27.189,29.396 26.052,29.47 25,29.851 V 25 h 6 2.531 L 32.32,23.397 c -0.723,-0.957 -0.979,-2.125 -0.721,-3.288 0.336,-1.512 1.57,-2.728 3.071,-3.026 1.229,-0.246 2.423,0.048 3.366,0.823 0.93,0.764 1.464,1.892 1.464,3.094 0,0.858 -0.284,1.687 -0.82,2.397 L 37.468,25 H 40 46 Z M 41.149,23 c 0.231,-0.639 0.351,-1.313 0.351,-2 0,-1.803 -0.8,-3.494 -2.195,-4.64 -1.395,-1.145 -3.224,-1.596 -5.024,-1.239 -2.267,0.45 -4.128,2.28 -4.633,4.554 -0.252,1.136 -0.178,2.273 0.203,3.325 H 25 v -7 -1.531 l -1.603,1.211 c -0.957,0.724 -2.124,0.979 -3.288,0.721 -1.512,-0.336 -2.728,-1.57 -3.026,-3.071 -0.244,-1.227 0.049,-2.422 0.823,-3.366 C 19.215,8.369 21.689,8.03 23.397,9.32 L 25,10.531 V 8 2 h 18 c 1.654,0 3,1.346 3,3 v 18 z"
   id="path14"
   inkscape:connector-curvature="0" />
</svg>